<!DOCTYPE svg PUBLIC "-//W3C//DTD SVG 1.1//EN" "http://www.w3.org/Graphics/SVG/1.1/DTD/svg11.dtd">
<!-- Uploaded to: SVG Repo, www.svgrepo.com, Transformed by: SVG Repo Mixer Tools -->
<svg fill="#ecbb9c" version="1.1" id="Layer_1" xmlns="http://www.w3.org/2000/svg" xmlns:xlink="http://www.w3.org/1999/xlink" viewBox="0 0 512 512" xml:space="preserve" width="800px" height="800px">
<g id="SVGRepo_bgCarrier" stroke-width="0"/>
<g id="SVGRepo_tracerCarrier" stroke-linecap="round" stroke-linejoin="round"/>
<g id="SVGRepo_iconCarrier"> <g> <g> <rect x="100.174" y="333.913" width="144.695" height="77.913"/> </g> </g> <g> <g> <path d="M261.565,233.739h-16.696v-33.391H100.174v33.391H83.478C37.446,233.739,0,271.185,0,317.217v111.304 c0,46.032,37.446,83.478,83.478,83.478h178.087c46.032,0,83.478-37.446,83.478-83.478V317.217 C345.043,271.185,307.597,233.739,261.565,233.739z M278.26,428.521c0,9.217-7.479,16.696-16.696,16.696H83.478 c-9.217,0-16.696-7.479-16.696-16.696V317.217c0-9.217,7.479-16.696,16.696-16.696h178.087c9.217,0,16.696,7.479,16.696,16.696 V428.521z"/> </g> </g> <g> <g> <path d="M194.782,0h-44.522c-27.619,0-50.087,22.468-50.087,50.087v116.869h144.695V50.087C244.869,22.468,222.401,0,194.782,0z"/> </g> </g> <g> <g> <path d="M511.596,491.684l-15.02-67.575c-4.713-21.238-20.312-37.408-40.229-43.273V267.13h38.956 c9.217,0,16.696-7.479,16.696-16.696v-50.087H367.304v50.087c0,9.217,7.479,16.696,16.696,16.696h38.956v113.705 c-19.917,5.865-35.515,22.035-40.229,43.273l-15.022,67.576c-1.109,4.945,0.098,10.12,3.271,14.065 c3.164,3.957,7.957,6.25,13.023,6.25h111.304c5.065,0,9.858-2.294,13.021-6.25C511.499,501.804,512.706,496.63,511.596,491.684z"/> </g> </g> <g> <g> <path d="M461.912,0H417.39c-27.619,0-50.087,22.468-50.087,50.087v116.869h144.695V50.087C511.999,22.468,489.531,0,461.912,0z"/> </g> </g> </g>
</svg>