<?xml version="1.0" encoding="UTF-8" standalone="no"?>
<!DOCTYPE svg PUBLIC "-//W3C//DTD SVG 1.1//EN" "http://www.w3.org/Graphics/SVG/1.1/DTD/svg11.dtd">
<svg width="100%" height="100%" viewBox="0 0 3894 823" version="1.1" xmlns="http://www.w3.org/2000/svg" xmlns:xlink="http://www.w3.org/1999/xlink" xml:space="preserve" xmlns:serif="http://www.serif.com/" style="fill-rule:evenodd;clip-rule:evenodd;stroke-linejoin:round;stroke-miterlimit:2;">
    <g transform="matrix(1,0,0,1,0,-1180)">
        <g id="Artboard4" transform="matrix(19.47,0,0,4.115,-43223.4,-2112)">
            <rect x="2220" y="800" width="200" height="200" style="fill:none;"/>
            <g transform="matrix(1.020237,0,0,1.020237,-46.948834,-10.55245)">
                <g transform="matrix(0.0407,0,0,0.192573,1926.281944,774.79358)">
                    <text x="8066.498px" y="827.084px" style="font-family:'BrandonText-Black', 'Brandon Text', sans-serif;font-weight:500;font-size:599.194px;fill:white;">S<tspan x="8445.787px 8921.547px 9394.311px 9843.706px 10288.307px 10732.31px 11246.418px 11668.25px " y="827.084px 827.084px 827.084px 827.084px 827.084px 827.084px 827.084px 827.084px ">UGARCOAT</tspan></text>
                </g>
                <g transform="matrix(0.027696,0,0,0.131045,2177.184364,392.625213)">
                    <g transform="matrix(1.055024,0,0,1.055024,2105.713951,3667.910061)">
                        <path d="M0,294.891C-0.785,293.836 -1.257,293.389 -1.506,292.84C-14.547,264.097 -24.428,234.345 -29.942,203.216C-34.436,177.848 -36.092,152.274 -35.42,126.53C-34.238,81.276 -25.467,37.452 -10.302,-5.106C11.896,-67.402 45.28,-123.093 90.24,-171.57C135.96,-220.866 191.143,-255.349 255.814,-274.269C271.14,-278.752 286.75,-281.979 302.606,-284.065C316.284,-285.863 330,-286.962 343.783,-286.713C367.161,-286.292 390.162,-283.339 412.421,-275.762C430.968,-269.449 447.973,-260.425 462.505,-247.154C476.526,-234.35 487.53,-219.435 493.7,-201.257C496.829,-192.037 498.73,-182.578 499.561,-172.881C499.807,-170.011 500.255,-167.142 500.846,-164.322C501.451,-161.433 501.498,-158.622 500.834,-155.744C499.993,-152.093 499.749,-148.396 499.858,-144.626C499.935,-141.963 499.504,-139.249 499.009,-136.612C497.944,-130.948 496.757,-125.305 495.478,-119.685C495.069,-117.889 494.109,-116.225 493.576,-114.449C483.308,-80.272 467.101,-49.012 447.057,-19.636C432.459,1.757 416.078,21.727 398.634,40.843C376.717,64.86 353.34,87.407 329.444,109.423C318.191,119.792 306.923,130.16 295.337,140.151C278.331,154.816 260.251,168.135 242.235,181.525C221.904,196.636 201.493,211.646 181.394,227.061C160.456,243.119 140.602,260.449 122.505,279.714C113.299,289.514 104.412,299.57 96.948,310.81C85.062,328.707 76.254,347.974 72.384,369.147C63.617,417.114 75.576,458.804 111.38,492.708C127.053,507.549 145.766,517.46 166.162,524.247C173.408,526.658 180.754,528.739 188.325,529.926C201.349,531.969 214.342,532.306 227.376,529.84C234.392,528.513 241.393,527.207 248.007,524.445C277.138,512.279 294.838,490.612 300.113,459.569C303.804,437.841 298.349,417.696 286.024,399.501C280.613,391.512 273.383,385.323 265.317,380.082C255.274,373.557 244.42,368.711 233.077,365.066C219.673,360.759 206.103,356.975 192.646,352.829C183.083,349.882 173.587,346.719 164.068,343.629C163.286,343.375 162.56,342.946 161.22,342.328C162.35,341.768 162.97,341.388 163.639,341.14C171.294,338.3 179.094,335.876 187.212,334.927C194.628,334.061 202.061,333.584 209.593,334.176C244.131,336.895 273.735,350.746 299.302,373.664C313.141,386.068 324.059,400.726 331.595,417.791C338.07,432.454 341.278,447.797 341.249,463.847C341.238,469.636 340.415,475.247 339.27,480.91C337.532,489.501 334.182,497.404 330.182,505.093C325.687,513.734 320.125,521.65 313.657,528.924C297.398,547.206 277.454,560.119 254.866,569.152C246.34,572.562 237.556,575.15 228.626,577.262C227.477,577.534 226.321,577.822 225.217,578.234C223.446,578.896 221.664,579.188 219.758,579.276C217.062,579.401 214.392,579.985 211.7,580.285C206.98,580.812 202.255,581.293 197.527,581.742C196.525,581.837 195.502,581.702 194.488,581.693C191.445,581.665 188.402,581.635 185.359,581.633C184.684,581.633 183.999,581.853 183.336,581.787C177.6,581.22 171.852,580.731 166.139,579.976C161.437,579.353 156.761,578.493 152.104,577.577C119.831,571.231 90.777,557.882 65.291,537.061C42.431,518.386 25.325,495.493 15.429,467.478C12.311,458.653 9.918,449.608 8.688,440.36C8.025,435.37 7.234,430.329 7.51,425.189C7.8,419.767 7.387,414.31 7.547,408.875C7.646,405.507 7.874,402.059 8.699,398.813C9.995,393.719 10.101,388.422 11.809,383.398C14.159,376.489 15.939,369.381 18.399,362.515C26.901,338.788 39.457,317.277 54.63,297.237C68.745,278.595 84.856,261.801 102.139,246.106C123.956,226.292 147.333,208.45 171.635,191.831C213.654,163.096 253.913,132.123 291.868,98.181C308.989,82.87 325.879,67.284 341.53,50.482C368.298,21.743 391.665,-9.51 409.119,-44.888C416.282,-59.408 421.951,-74.484 425.442,-90.342C428.426,-103.9 429.643,-117.586 427.869,-131.377C424.534,-157.313 411.999,-177.668 390.153,-192.165C377.815,-200.351 364.177,-205.341 349.783,-208.481C336.403,-211.4 322.856,-212.022 309.227,-211.669C286.095,-211.071 263.767,-206.242 241.985,-198.7C208.378,-187.064 178.14,-169.419 150.676,-146.951C112.646,-115.838 82.817,-78.013 59.459,-34.94C40.315,0.362 26.493,37.707 16.702,76.6C11.552,97.052 7.6,117.739 4.708,138.618C2.702,153.097 1.289,167.643 0.182,182.229C-1.789,208.209 -2.037,234.212 -1.403,260.233C-1.163,270.089 -0.472,279.934 -0.01,289.786C0.059,291.237 0,292.694 0,294.891" style="fill:white;fill-rule:nonzero;"/>
                    </g>
                    <g transform="matrix(1.055024,0,0,1.055024,1835.937974,3762.975217)">
                        <path d="M0,-189.49C-3.975,-184.203 -7.825,-178.816 -11.964,-173.662C-15.182,-169.655 -19.207,-166.495 -23.853,-164.21C-34.312,-159.066 -46.597,-160.97 -54.797,-170.594C-64.233,-181.67 -65.222,-198 -54.214,-210.114C-49.541,-215.257 -43.986,-218.698 -36.955,-220.156C-26.677,-222.287 -16.379,-222.88 -6.043,-221.664C4.483,-220.426 14.441,-217.039 23.892,-212.187C36.731,-205.595 47.839,-196.721 57.909,-186.48C70.127,-174.055 80.398,-160.118 89.553,-145.337C103.645,-122.584 114.895,-98.441 124.469,-73.49C135.624,-44.418 144.435,-14.653 150.542,15.887C151.502,20.684 153.135,25.397 152.964,30.392C152.941,31.051 152.886,31.709 152.834,32.565C150.637,33.39 148.486,33.091 146.068,32.873C145.424,31.558 144.509,30.272 144.139,28.845C140.645,15.356 135.949,2.247 131.561,-10.953C123.575,-34.975 114.772,-58.692 104.058,-81.657C94.551,-102.032 83.617,-121.578 70.155,-139.64C57.586,-156.504 43.269,-171.682 26.232,-184.099C15.375,-192.011 3.13,-197.048 -10.084,-199.343C-16.09,-200.385 -22.281,-200.418 -28.273,-198.555C-32.408,-197.269 -36.088,-195.256 -38.897,-191.868C-40.668,-189.731 -41.921,-187.368 -42.096,-184.522C-42.382,-179.854 -39.828,-176.502 -35.191,-176.113C-32.7,-175.904 -30.099,-176.177 -27.633,-176.662C-22.578,-177.657 -18.049,-180.034 -13.673,-182.672C-10.182,-184.777 -6.751,-186.982 -3.274,-189.109C-2.462,-189.606 -1.57,-189.97 -0.714,-190.395C-0.476,-190.093 -0.238,-189.792 0,-189.49" style="fill:white;fill-rule:nonzero;"/>
                    </g>
                    <g transform="matrix(1.055024,0,0,1.055024,2019.187631,3814.390653)">
                        <path d="M0,89.732C-6.249,89.907 -10.866,87.086 -13.762,81.724C-15.36,78.764 -16.429,75.499 -17.543,72.303C-18.716,68.939 -19.627,65.484 -20.708,62.087C-21.941,58.212 -24.597,55.786 -28.495,54.724C-30.785,54.099 -33.063,53.336 -35.398,52.988C-44.718,51.601 -48.921,45.036 -51.147,36.964C-53.189,29.556 -51.182,22.418 -47.616,15.868C-42.508,6.485 -34.272,1.652 -23.72,0.747C-12.97,-0.175 -3.527,2.92 4.203,10.532C9.115,15.369 12.616,21.26 14.988,27.673C16.984,33.071 18.54,38.659 19.89,44.26C21.075,49.177 21.751,54.22 22.548,59.224C22.758,60.545 22.769,61.961 22.544,63.277C21.892,67.1 21.212,70.929 20.292,74.694C18.195,83.275 11.786,88.718 3.053,89.534C2.038,89.629 1.018,89.667 0,89.732" style="fill:white;fill-rule:nonzero;"/>
                    </g>
                    <g transform="matrix(1.055024,0,0,1.055024,1979.032783,3644.258848)">
                        <path d="M0,156.029C-2.129,156.935 -3.811,157.651 -5.786,158.491C-6.598,157.261 -7.409,156.222 -8.021,155.077C-14.182,143.538 -20.25,131.949 -26.463,120.439C-34.377,105.777 -42.792,91.412 -52.41,77.784C-60.271,66.646 -68.886,56.147 -78.839,46.795C-91.886,34.536 -106.607,25.024 -123.754,19.505C-129.131,17.775 -134.597,16.737 -140.284,17.053C-143.557,17.234 -146.659,18.053 -149.618,19.375C-151.978,20.429 -154.053,21.98 -155.425,24.196C-156.208,25.461 -156.854,26.933 -157.091,28.388C-157.625,31.669 -155.739,33.697 -152.444,33.435C-148.401,33.114 -145.05,31.144 -141.987,28.607C-140.576,27.437 -139.115,26.327 -137.8,25.287C-136.305,25.697 -135.173,26.008 -133.92,26.352C-133.465,28.562 -133.109,30.84 -134.499,32.732C-137.203,36.417 -139.799,40.246 -143.731,42.825C-149.122,46.359 -154.919,46.897 -160.737,44.387C-173.846,38.732 -179.11,21.017 -167.313,9.199C-165.916,7.799 -164.037,6.782 -162.226,5.908C-145.359,-2.243 -128.208,-2.462 -110.897,4.364C-99.866,8.714 -90.218,15.312 -81.286,23.016C-70.157,32.613 -60.509,43.572 -51.814,55.376C-30.294,84.591 -13.752,116.434 -1.762,150.661C-1.207,152.248 -0.712,153.855 0,156.029" style="fill:white;fill-rule:nonzero;"/>
                    </g>
                </g>
            </g>
        </g>
    </g>
</svg>
