<?xml version="1.0" encoding="UTF-8"?>
<svg version="1.1" xmlns="http://www.w3.org/2000/svg" width="3894" height="823">
<path d="M0 0 C10.77539746 9.59273188 18.8338169 20.99148249 22.3125 35.125 C23.69843627 40.09256934 26.28692243 42.78998833 29.8046875 46.45703125 C40.45162907 58.79005432 44.88964231 73.99504695 43.78515625 90.140625 C41.70877346 105.24878168 33.82848788 119.29876982 22 129 C6.44585987 140 6.44585987 140 0 140 C0 140.66 0 141.32 0 142 C0.928125 142.04125 1.85625 142.0825 2.8125 142.125 C11.58381852 143.43892221 18.81553319 148.87694077 24.2890625 155.6015625 C28.371809 161.32486467 30.78691516 166.76439223 32.30737305 173.64379883 C33.90016086 180.7731276 35.89166699 184.72290325 41.8203125 189.26171875 C49.54909948 195.42535711 52.37365985 206.64064722 54 216 C56.94721687 261.17168805 39.18432626 304.75615856 13 341 C12.56896973 341.59796387 12.13793945 342.19592773 11.69384766 342.81201172 C4.58901774 352.6155566 -2.9412967 361.96636991 -11 371 C-11.51626953 371.57943359 -12.03253906 372.15886719 -12.56445312 372.75585938 C-17.78814362 378.58800948 -23.01986746 384.32905621 -29.046875 389.3515625 C-30.42522383 390.51488891 -31.76629665 391.72308443 -33.078125 392.9609375 C-44.66417819 403.87704884 -58.16422886 413.18103771 -72 421 C-72.72429199 421.41459473 -73.44858398 421.82918945 -74.19482422 422.25634766 C-98.79434704 436.19356966 -125.80828195 445.25426076 -154 448 C-155.08667969 448.11085938 -156.17335938 448.22171875 -157.29296875 448.3359375 C-203.27035045 452.32459664 -251.361469 443.17840101 -287.5 412.875 C-289.70793738 410.95956862 -291.86196209 408.99300425 -294 407 C-294.63969727 406.40413086 -295.27939453 405.80826172 -295.93847656 405.19433594 C-313.14453878 388.97760169 -324.63627993 371.12848512 -334.91308594 349.99365234 C-337.29676834 345.18058271 -340.01815571 340.69174301 -342.9375 336.1875 C-364.07746033 303.18607662 -374.88593488 262.00156325 -376 223 C-376.02191406 222.28054199 -376.04382813 221.56108398 -376.06640625 220.81982422 C-377.69334199 158.03366233 -356.32862177 96.76999203 -317 48 C-316.22011719 47.01515625 -315.44023438 46.0303125 -314.63671875 45.015625 C-303.00158951 30.75671078 -289.73736416 17.05827895 -275 6 C-273.80508022 5.06626673 -272.61114559 4.13127197 -271.41796875 3.1953125 C-239.56164489 -21.54159057 -202.08228154 -39.31331401 -162 -45 C-161.01918457 -45.14356934 -161.01918457 -45.14356934 -160.01855469 -45.29003906 C-106.0805944 -52.28617617 -41.77234515 -35.10654539 0 0 Z M-199.2734375 173.7109375 C-221.58762232 200.01496935 -230.54281995 229.76686296 -229 264 C-228.93039062 265.87171875 -228.93039062 265.87171875 -228.859375 267.78125 C-228.47177808 271.90201726 -228.09557688 274.80415827 -225.25 277.91015625 C-212.42757182 287.22931387 -195.54210442 288.66915233 -180.25927734 286.63525391 C-169.62860545 285.19476012 -169.62860545 285.19476012 -160 281 C-160.79664063 280.75765625 -161.59328125 280.5153125 -162.4140625 280.265625 C-171.62440422 277.35237823 -177.89130688 274.79747024 -183.0625 266.2421875 C-185.36763055 261.78447181 -186.1738626 257.9266699 -186.52978516 252.9074707 C-186.74516295 246.45014692 -186.74516295 246.45014692 -189.91015625 241.140625 C-192.23626196 239.96690735 -192.23626196 239.96690735 -194.6796875 239.0546875 C-199.79202615 236.73089721 -202.56059575 231.25806963 -204.8125 226.3125 C-209.54889263 213.1004574 -207.09585932 199.26169308 -201.3125 186.8125 C-193.91752663 172.92879999 -182.72220252 165.67975514 -168 161 C-164.49463483 160.18348423 -160.97852365 159.66075094 -157.4140625 159.171875 C-156.33677887 159.0149115 -155.25949524 158.857948 -154.14956665 158.69622803 C-150.88197734 158.2263671 -147.61301394 157.77017494 -144.34248352 157.32144165 C-141.79264686 156.97154646 -139.24318191 156.61901283 -136.69372559 156.26635742 C-123.03743557 154.38062581 -109.37571368 152.53582682 -95.71276855 150.69903564 C-90.0934295 149.94305646 -84.47446716 149.1842875 -78.85546875 148.42578125 C-67.90400451 146.94785197 -56.95213848 145.47292396 -46 144 C-49.38976915 142.24551009 -52.71929849 141.1172481 -56.375 140 C-63.22858007 137.83180162 -69.62735816 134.9331689 -76.125 131.875 C-123.19403128 110.12093887 -167.96807712 138.17924062 -199.2734375 173.7109375 Z " fill="#EB1F89" transform="translate(1197,236)"/>
<path d="M0 0 C2.6791149 2.25452211 5.30269965 4.56680654 7.90844727 6.90551758 C8.50318848 7.43854492 9.09792969 7.97157227 9.71069336 8.52075195 C15.85846036 14.06194786 21.96764144 19.58337808 27.27172852 25.95629883 C29.24262344 28.30349827 31.32660433 30.53129029 33.40844727 32.78051758 C39.9982845 40.18987461 44.74320228 45.94504545 46.72094727 55.84301758 C48.20203097 63.15965645 51.05431185 67.15005627 56.43579102 72.46020508 C65.78083828 81.70191059 68.93020453 93.39569684 69.15014648 106.2734375 C69.24073046 132.26837434 62.25202525 157.6227484 43.90844727 176.90551758 C29.07234634 191.02770086 11.72792066 196.39282372 -8.43530273 196.02661133 C-9.64186523 195.98665039 -10.84842773 195.94668945 -12.09155273 195.90551758 C-13.21561523 195.89649414 -14.33967773 195.8874707 -15.49780273 195.87817383 C-21.4785625 195.47233656 -25.14841389 194.43898577 -29.34985352 189.98022461 C-31.19909583 187.84953277 -32.98568603 185.67238321 -34.76196289 183.48071289 C-47.71852319 168.13078137 -68.93784529 153.96733276 -89.0949707 151.67797852 C-100.73742482 150.79836331 -111.06243887 152.6704684 -120.27514648 160.24536133 C-138.59655608 176.99073569 -153.08243201 205.62011066 -154.25952148 230.44848633 C-154.74780786 244.26077095 -154.74780786 244.26077095 -150.09155273 256.84301758 C-138.45032649 264.84636062 -127.21383356 266.47914947 -113.37280273 264.32739258 C-89.96389568 258.72961046 -70.80467543 244.58753554 -53.09155273 228.90551758 C-51.73416992 227.71442383 -51.73416992 227.71442383 -50.34936523 226.49926758 C-46.44067172 223.03015358 -42.68876115 219.50908752 -39.09155273 215.71801758 C-30.62475225 207.13124218 -20.88440845 203.56689106 -9.01342773 202.87817383 C12.45238052 203.02783584 29.73524569 213.42200699 44.90844727 227.90551758 C45.82883789 228.71375977 45.82883789 228.71375977 46.76782227 229.53833008 C56.20458589 238.15262348 62.24649209 250.49808101 66.81469727 262.23364258 C68.58525082 266.59897288 70.5885608 269.8775071 73.65844727 273.46801758 C86.49298596 288.93651011 91.66722295 308.92279569 90.72485352 328.77270508 C88.64531853 350.42559517 79.88366724 366.41905254 64.90844727 381.90551758 C63.81209961 383.07920898 63.81209961 383.07920898 62.69360352 384.27661133 C21.47327313 427.33919112 -44.00304457 449.49227066 -102.39233398 451.03051758 C-143.66785951 451.77139387 -188.65557166 442.35237043 -222.09155273 416.90551758 C-223.13053711 416.15786133 -224.16952148 415.41020508 -225.23999023 414.63989258 C-251.06891215 395.63723926 -269.30609428 370.28883912 -283.1328125 341.69384766 C-285.24945093 337.38503317 -287.63820301 333.4478143 -290.34155273 329.46801758 C-308.69895063 302.0470838 -318.46833279 268.60151951 -321.09155273 235.90551758 C-321.14794922 235.20765137 -321.2043457 234.50978516 -321.26245117 233.79077148 C-321.64362412 228.83213994 -321.89868921 223.87472969 -322.09155273 218.90551758 C-322.14569336 217.6809082 -322.19983398 216.45629883 -322.25561523 215.19458008 C-322.90502232 187.03392745 -316.52101467 158.62429773 -308.09155273 131.90551758 C-307.6688208 130.56336182 -307.6688208 130.56336182 -307.23754883 129.1940918 C-296.74487488 96.42983384 -281.34256328 65.71789118 -261.09155273 37.90551758 C-260.64859863 37.29289062 -260.20564453 36.68026367 -259.74926758 36.04907227 C-253.47420373 27.43321433 -246.49126034 19.55649191 -239.09155273 11.90551758 C-238.37757324 11.16430664 -237.66359375 10.4230957 -236.92797852 9.65942383 C-210.31998624 -17.83420185 -182.90069137 -33.81034121 -145.09155273 -41.09448242 C-144.24979492 -41.25964355 -143.40803711 -41.42480469 -142.54077148 -41.5949707 C-90.75202914 -51.45318209 -39.98936953 -32.91033943 0 0 Z " fill="#EB1F89" transform="translate(2430.091552734375,234.094482421875)"/>
<path d="M0 0 C2.49042684 2.20625769 4.92473506 4.45769188 7.33984375 6.74609375 C8.22285156 7.57625 9.10585937 8.40640625 10.015625 9.26171875 C17.21456051 16.22645975 23.41578752 23.68524012 29.33984375 31.74609375 C29.94795898 32.56376221 29.94795898 32.56376221 30.56835938 33.39794922 C37.58778956 42.95919435 42.88337335 53.36930271 48.23535156 63.92260742 C51.20810978 69.7535066 54.2003213 75.34957941 57.90234375 80.74609375 C77.86895746 110.62151203 87.18981807 146.45923986 91.33984375 181.74609375 C91.47261719 182.86628906 91.60539062 183.98648438 91.7421875 185.140625 C98.25944562 253.25936399 76.61320211 324.191144 33.90234375 377.37109375 C28.91449566 383.34949867 23.68958335 389.09279624 18.33984375 394.74609375 C17.46457031 395.67550781 16.58929687 396.60492187 15.6875 397.5625 C9.28350076 404.17338321 2.46909009 409.90695204 -4.88818359 415.41845703 C-6.03887542 416.28060393 -7.18531609 417.14846498 -8.32666016 418.02294922 C-44.97208002 446.06266248 -91.81391459 459.156504 -137.63671875 453.49609375 C-182.18478904 447.27439386 -221.92709107 423.01357154 -249.03515625 387.27734375 C-249.91269902 386.10215489 -250.78778025 384.92512313 -251.66015625 383.74609375 C-252.05976563 383.20726562 -252.459375 382.6684375 -252.87109375 382.11328125 C-261.67809386 370.11448244 -268.49550022 357.03922203 -275.36206055 343.87402344 C-277.55920689 339.69977879 -279.90536658 335.70841892 -282.47265625 331.74609375 C-301.3678001 301.46106279 -310.87050329 266.97454045 -314.66015625 231.74609375 C-314.77617187 230.70751221 -314.77617187 230.70751221 -314.89453125 229.64794922 C-322.06759894 161.24516187 -299.55815247 89.05458342 -256.66015625 35.74609375 C-253.64480503 32.21357473 -250.49203863 28.82371159 -247.2734375 25.4765625 C-245.06242997 23.16640665 -242.97117076 20.8136053 -240.91015625 18.37109375 C-237.4784048 14.42087625 -233.66534027 11.10104064 -229.66015625 7.74609375 C-228.82097656 7.00746094 -227.98179687 6.26882812 -227.1171875 5.5078125 C-161.75305884 -51.02088911 -66.90286335 -56.68568598 0 0 Z M-133.66015625 158.74609375 C-134.42070312 159.37257813 -135.18125 159.9990625 -135.96484375 160.64453125 C-141.98403525 165.74730605 -146.87107578 171.49024693 -151.66015625 177.74609375 C-152.25570312 178.514375 -152.85125 179.28265625 -153.46484375 180.07421875 C-171.11392548 203.98587787 -180.10651274 233.96728347 -177.296875 263.57421875 C-176.58396758 267.12563485 -175.50249564 268.44557744 -172.5859375 270.5546875 C-158.92133895 279.00844522 -145.01489541 280.68741154 -129.34765625 277.24609375 C-102.72227733 270.77984477 -79.82023542 250.69944384 -65.66015625 227.74609375 C-58.61333904 215.6838348 -52.10940791 203.34643254 -48.66015625 189.74609375 C-48.345625 188.51503906 -48.03109375 187.28398437 -47.70703125 186.015625 C-45.98071672 178.19228143 -45.39003763 170.63186953 -45.34765625 162.62109375 C-45.33931763 161.28763916 -45.33931763 161.28763916 -45.33081055 159.92724609 C-45.3594117 151.78000024 -45.3594117 151.78000024 -49.40234375 144.98828125 C-77.58096875 126.9250601 -110.08745695 138.5964927 -133.66015625 158.74609375 Z " fill="#EB1F89" transform="translate(2835.66015625,230.25390625)"/>
<path d="M0 0 C1.14947617 -0.00701431 2.29895233 -0.01402863 3.48326111 -0.02125549 C7.1646624 -0.03863723 10.84590296 -0.04510588 14.52734375 -0.046875 C16.41175171 -0.04788712 16.41175171 -0.04788712 18.33422852 -0.04891968 C36.212263 -0.0336376 53.80888693 0.11073827 71.46484375 3.203125 C72.50817871 3.38536621 73.55151367 3.56760742 74.62646484 3.75537109 C81.62640583 5.0239448 88.55540303 6.51135735 95.46484375 8.203125 C96.2542334 8.39632324 97.04362305 8.58952148 97.85693359 8.78857422 C123.3033783 15.21522688 149.49603783 27.99910763 163.46484375 51.203125 C167.0464192 57.87404367 170.10225153 64.81486091 172.92578125 71.8359375 C174.53010579 75.34590641 176.42589219 78.16433574 178.71484375 81.265625 C196.89484538 106.83635383 201.19103829 139.21964681 196.33544922 169.85009766 C187.15922409 220.36001865 156.77421096 268.55423965 115.46484375 299.203125 C119.28025728 303.53648586 124.05019266 306.39411669 128.84765625 309.515625 C130.24007034 310.42997314 130.24007034 310.42997314 131.66061401 311.36279297 C134.63409923 313.31407558 137.6118119 315.25879016 140.58984375 317.203125 C142.53936011 318.48001448 144.48858178 319.75735402 146.4375 321.03515625 C147.39481522 321.66267792 148.35213043 322.29019958 149.3384552 322.93673706 C151.25775142 324.1953642 153.17676906 325.45441625 155.09550476 326.71389771 C156.50168816 327.63693192 156.50168816 327.63693192 157.9362793 328.57861328 C158.8572641 329.18320374 159.7782489 329.78779419 160.72714233 330.41070557 C163.39808096 332.15941427 166.07520558 333.89831282 168.75317383 335.63623047 C170.37471602 336.69727898 171.99606478 337.7586232 173.6171875 338.8203125 C174.71687363 339.52764526 174.71687363 339.52764526 175.83877563 340.24926758 C184.04409349 345.65082116 188.45597268 352.2262304 191.01171875 361.69140625 C191.48185124 364.29739929 191.54184212 366.7465353 191.58984375 369.390625 C191.82282876 372.56814398 192.06753326 373.79405479 194.3125 376.10546875 C195.88931882 377.26636541 197.48933313 378.3963197 199.109375 379.49609375 C206.20315155 384.63702303 209.48206722 392.28924234 211.15234375 400.640625 C212.74588702 418.80701825 206.66725803 436.25434847 195.52734375 450.640625 C194.19742627 452.1827083 192.84322385 453.70420216 191.46484375 455.203125 C190.76617188 455.98171875 190.0675 456.7603125 189.34765625 457.5625 C180.1251068 467.34299728 166.23371328 476.94785206 152.33984375 477.4765625 C150.71497753 477.51632268 149.08995255 477.54997351 147.46484375 477.578125 C146.67722656 477.61550781 145.88960937 477.65289063 145.078125 477.69140625 C133.34135866 477.86150431 124.24345995 471.89222567 115.40234375 464.765625 C113.56882124 463.32800656 111.73416262 461.89183607 109.8984375 460.45703125 C108.98819824 459.74047363 108.07795898 459.02391602 107.14013672 458.28564453 C103.14265495 455.17389791 99.05851401 452.1864868 94.96484375 449.203125 C87.33599302 443.61852859 79.80835015 437.91032491 72.30078125 432.1640625 C66.56581648 427.78248174 60.78724812 423.46769542 54.96484375 419.203125 C48.23986897 414.27747458 41.58445113 409.26946731 34.96484375 404.203125 C27.94456054 398.83252011 20.8901456 393.51321964 13.77734375 388.265625 C12.96910156 387.66814453 12.16085937 387.07066406 11.328125 386.45507812 C10.585625 385.90916016 9.843125 385.36324219 9.078125 384.80078125 C8.42626221 384.32133057 7.77439941 383.84187988 7.1027832 383.34790039 C5.45727267 382.13857868 5.45727267 382.13857868 3.46484375 381.203125 C2.59482633 384.97290136 2.32058241 388.49473814 2.27539062 392.36010742 C2.25031433 394.19438545 2.25031433 394.19438545 2.22473145 396.0657196 C2.21115601 397.38336807 2.19758057 398.70101654 2.18359375 400.05859375 C2.16551208 401.44322885 2.14690725 402.82785721 2.12780762 404.21247864 C2.06829959 408.6051361 2.01628797 412.99786687 1.96484375 417.390625 C1.57463031 450.33030492 1.57463031 450.33030492 1.09375 460.8671875 C1.03517822 462.16994629 0.97660645 463.47270508 0.91625977 464.81494141 C-0.18367306 473.07068383 -4.78165902 479.54445895 -11.21484375 484.64453125 C-29.14265471 496.68694972 -50.71801937 498.32014151 -71.55566406 494.60546875 C-87.1695513 491.43185181 -103.52134411 484.92930432 -113.3125 471.82421875 C-117.61728198 465.09865473 -120.44438744 458.03904232 -120.72265625 450.015625 C-121.75522796 445.17048083 -123.64151002 443.8964907 -127.40625 440.90625 C-134.38239794 435.32533165 -138.74625916 428.29564998 -139.9051308 419.34587121 C-140.47183168 411.11616422 -140.76600148 402.90390338 -140.92115784 394.65667725 C-140.95058287 393.2345107 -140.98033015 391.81235078 -141.01036781 390.39019704 C-141.09121139 386.51890776 -141.1675188 382.64754087 -141.2430228 378.77614427 C-141.32554563 374.58645151 -141.41234673 370.39684701 -141.49859619 366.20722961 C-141.6666146 358.01309799 -141.83072478 349.8188926 -141.99349136 341.62465516 C-142.18348903 332.06690212 -142.37738237 322.50922927 -142.57142066 312.95155755 C-142.91773832 295.88654766 -143.26052474 278.82146867 -143.60131836 261.75634766 C-143.93139605 245.22797408 -144.26397769 228.69965342 -144.59936523 212.17138672 C-144.62001148 211.1539005 -144.64065773 210.13641429 -144.66192961 209.08809516 C-144.68254173 208.07230487 -144.70315384 207.05651458 -144.72439057 206.00994277 C-145.10699481 187.15391549 -145.48732857 168.297843 -145.86655946 149.44174759 C-146.00032401 142.7930819 -146.13473707 136.1444295 -146.26935005 129.49578094 C-146.43360539 121.38068169 -146.59653246 113.26555692 -146.75785799 105.15039888 C-146.84005782 101.016641 -146.92277196 96.8828953 -147.00698662 92.74917793 C-147.20051522 83.23408001 -147.38141066 73.71896584 -147.53515625 64.203125 C-147.55199927 63.21795175 -147.56884229 62.23277849 -147.58619571 61.2177515 C-147.62441901 58.78017023 -147.65153231 56.34287557 -147.67198181 53.90509033 C-147.68445418 52.68225971 -147.69692656 51.45942909 -147.70977688 50.199543 C-147.45035874 45.74803464 -146.31208394 42.65552158 -143.53515625 39.203125 C-143.09558594 38.62820312 -142.65601563 38.05328125 -142.203125 37.4609375 C-115.37625184 6.89867694 -53.60900183 3.22875687 -15.9581604 0.41230774 C-10.63816597 0.08719829 -5.32876656 0.02191214 0 0 Z M-3.53515625 171.203125 C-4.23294817 173.91905592 -4.23294817 173.91905592 -4.484375 177.13671875 C-4.61005859 178.34392578 -4.73574219 179.55113281 -4.86523438 180.79492188 C-4.98318359 182.06400391 -5.10113281 183.33308594 -5.22265625 184.640625 C-5.35220703 185.87490234 -5.48175781 187.10917969 -5.61523438 188.38085938 C-6.34468554 195.67923059 -6.71378709 202.86980907 -6.53515625 210.203125 C6.09903941 207.0530053 16.78755776 200.8576084 26.46484375 192.203125 C27.30917969 191.45289063 28.15351562 190.70265625 29.0234375 189.9296875 C37.46631773 181.98798281 44.14942246 172.39267184 47.46484375 161.203125 C47.46484375 160.213125 47.46484375 159.223125 47.46484375 158.203125 C29.33904301 154.38716695 11.45888762 161.20709575 -3.53515625 171.203125 Z " fill="#EB1F89" transform="translate(1884.53515625,190.796875)"/>
<path d="M0 0 C30.9299199 18.38078772 48.29259141 57.21212171 64.99975586 87.51245117 C68.36636262 93.60928062 71.78957668 99.65457603 75.375 105.625 C86.97089328 125.04471642 97.10970105 145.3919353 107.44790649 165.49971008 C109.80271756 170.0792815 112.16739706 174.65367443 114.53515625 179.2265625 C122.07752729 193.80384591 129.52357482 208.42328054 136.83514404 223.11776733 C140.98281415 231.45132856 145.19626341 239.74011702 149.57983398 247.95263672 C153.47904616 255.29700434 157.17155038 262.74329244 160.875 270.1875 C165.26532753 279.00907636 169.68809749 287.80513941 174.32080078 296.50268555 C177.11552041 301.76243611 179.85240491 307.0498549 182.56640625 312.3515625 C183.13262444 313.45752525 183.13262444 313.45752525 183.71028137 314.58583069 C184.49280965 316.11447557 185.27532595 317.64312658 186.05783081 319.17178345 C191.91093331 330.60245139 197.81972346 341.98447087 204.02758789 353.2277832 C209.8518388 363.80528628 215.36567146 374.54283222 220.87597656 385.28613281 C222.13390478 387.72085902 223.41269678 390.14133616 224.7109375 392.5546875 C232.51967058 407.34844764 235.22361235 423.90557068 230.47265625 440.19140625 C222.52583322 461.88255665 207.22139187 476.59031685 186.55517578 486.23730469 C164.14648432 496.00378029 139.64842229 497.15433976 116.625 488.9375 C99.9675341 482.12308213 86.02252534 469.64478858 78.375 453.1875 C77.73017867 450.86507298 77.12796735 448.53051269 76.5625 446.1875 C74.90981909 439.82364984 72.44522383 436.50547869 67.85424805 431.91894531 C58.38401122 421.48536485 55.11465043 408.7712725 51.875 395.4375 C51.43153892 393.68702992 50.98623597 391.9370254 50.5390625 390.1875 C47.375 377.69441106 47.375 377.69441106 47.375 375.1875 C38.8180707 375.16385689 30.26115604 375.14633018 21.7042017 375.13568783 C17.72669854 375.13056847 13.74921841 375.12368298 9.77172852 375.11206055 C-12.04848371 375.04997275 -33.81889263 375.37636291 -55.625 376.1875 C-55.72641296 376.74051788 -55.82782593 377.29353577 -55.93231201 377.86331177 C-57.4054256 385.57478946 -59.34016463 393.14992039 -61.328125 400.7421875 C-61.50635551 401.42412296 -61.68458603 402.10605843 -61.86821747 402.8086586 C-62.81162077 406.41556976 -63.75903928 410.02140014 -64.70947266 413.62646484 C-65.67966853 417.31022643 -66.63462175 420.99776227 -67.58626175 424.68635368 C-68.33072077 427.55952301 -69.08710351 430.42946151 -69.84651947 433.29870987 C-70.20334994 434.65524056 -70.55580653 436.01293097 -70.90341949 437.37185287 C-75.81732638 456.53770548 -85.09503544 472.8719695 -102.48339844 483.30224609 C-123.20225711 494.991775 -146.6965732 497.20561342 -169.625 491.1875 C-183.02046309 487.18641778 -194.84457231 481.09660817 -205.625 472.1875 C-206.43324219 471.58164062 -207.24148437 470.97578125 -208.07421875 470.3515625 C-210.96701302 467.89733887 -213.27481799 465.19039072 -215.5625 462.1875 C-215.9963501 461.61862061 -216.4302002 461.04974121 -216.87719727 460.46362305 C-221.97026862 453.60548504 -225.93282424 446.40663741 -227.9375 438.0625 C-229.37736333 432.69729499 -232.56277103 429.62025324 -236.34375 425.6796875 C-247.80097555 413.16306095 -250.45320653 396.83106331 -249.7734375 380.47412109 C-248.76703805 364.97093482 -239.92259563 351.48323485 -232.625 338.1875 C-232.14530762 337.31335449 -231.66561523 336.43920898 -231.17138672 335.53857422 C-227.24319199 328.39013243 -227.24319199 328.39013243 -225.64306641 325.48876953 C-219.52853636 314.31856228 -213.78718728 302.95179196 -208.00561523 291.60693359 C-203.51998966 282.80859038 -198.98462452 274.04046746 -194.37225342 265.30786133 C-189.76345004 256.57345189 -185.25191511 247.7898588 -180.75 239 C-180.31745911 238.15642944 -179.88491821 237.31285889 -179.43927002 236.44372559 C-173.74876491 225.34424479 -168.11378847 214.22038485 -162.56542969 203.04907227 C-159.78726739 197.46862826 -156.93260871 191.9381428 -154 186.4375 C-149.02864838 177.11075326 -144.3354699 167.64762481 -139.625 158.1875 C-134.20458009 147.30490422 -128.75570567 136.44943186 -123.03125 125.72265625 C-121.18775123 122.26687456 -119.38468944 118.79190414 -117.59375 115.30859375 C-110.75217631 102.01159781 -103.64411247 88.91237141 -96.19824219 75.94433594 C-94.65839302 73.24601551 -93.14226429 70.53573368 -91.6328125 67.8203125 C-58.76602928 8.95280805 -58.76602928 8.95280805 -32.99609375 -1.921875 C-22.59910657 -4.66870359 -9.79569658 -4.5800908 0 0 Z M0.375 196.1875 C-3.23422288 204.74244188 -6.68538828 213.35108224 -10.0625 222 C-11.02568963 224.45977329 -11.98922855 226.91940984 -12.953125 229.37890625 C-13.64051758 231.13291748 -13.64051758 231.13291748 -14.34179688 232.92236328 C-16.7393083 239.02288036 -19.17460824 245.10804702 -21.625 251.1875 C-13.70083437 249.84975605 -5.91893125 248.14081776 1.875 246.1875 C3.47988281 245.79691406 3.47988281 245.79691406 5.1171875 245.3984375 C6.65246094 245.01558594 6.65246094 245.01558594 8.21875 244.625 C9.13849609 244.39683594 10.05824219 244.16867187 11.00585938 243.93359375 C13.60372727 243.23662642 13.60372727 243.23662642 16.375 241.1875 C13.68698511 231.68894989 10.40691368 222.39003745 7.1875 213.0625 C6.62286741 211.42193675 6.05841284 209.78131223 5.49414062 208.140625 C4.12314513 204.15554053 2.74974301 200.17129316 1.375 196.1875 C1.045 196.1875 0.715 196.1875 0.375 196.1875 Z " fill="#EB1F89" transform="translate(3168.625,190.8125)"/>
<path d="M0 0 C30.53631747 18.14688079 48.03998694 56.42174575 64.28125 86.49609375 C67.55990477 92.55507304 70.93368553 98.55897116 74.3125 104.5625 C85.44339553 124.38750274 96.12646088 144.42496908 106.52024841 164.64439392 C108.68962877 168.86266235 110.87249679 173.07364809 113.0625 177.28125 C120.26813798 191.13560073 127.33371342 205.05205455 134.2923584 219.03219604 C138.63852398 227.76152565 143.03538052 236.45134911 147.63012695 245.05322266 C151.51420388 252.36317489 155.18823963 259.77687678 158.875 267.1875 C163.26417971 276.00675869 167.68775703 284.79935836 172.31640625 293.49609375 C176.34078187 301.07446343 180.2544239 308.70887387 184.17181396 316.34289551 C192.95500086 333.45836963 201.85633803 350.50094609 210.94363403 367.45709229 C211.92741757 369.29367752 212.91002042 371.1308899 213.89233398 372.96826172 C216.64637915 378.1167275 219.40593185 383.26085154 222.23046875 388.37109375 C231.28666946 404.84013992 235.0886774 421.56040808 230.01611328 440.15380859 C226.19774305 452.26615591 219.42051197 461.47700699 210.375 470.1875 C209.74207031 470.83976562 209.10914063 471.49203125 208.45703125 472.1640625 C192.07925836 487.99952503 167.04950886 494.58774126 144.89355469 494.49047852 C124.06803885 493.98316633 104.91009446 486.32340917 90.375 471.1875 C83.36803616 462.83854308 78.45135848 455.23057393 75.625 444.75 C73.95138417 439.04924608 71.73837265 435.89399751 67.62011719 431.71606445 C58.34908771 421.27456246 55.08826502 408.66267528 51.875 395.4375 C51.43153892 393.68702992 50.98623597 391.9370254 50.5390625 390.1875 C47.375 377.69441106 47.375 377.69441106 47.375 375.1875 C38.60133435 375.16395048 29.82768018 375.14637436 21.05398941 375.13568783 C16.97657374 375.13054947 12.89918025 375.12362484 8.82177734 375.11206055 C-7.36011528 375.06745591 -23.5289545 375.07128852 -39.703125 375.62890625 C-40.86148865 375.66789536 -42.01985229 375.70688446 -43.21331787 375.74705505 C-49.49130739 375.95890696 -49.49130739 375.95890696 -55.625 377.1875 C-55.86001724 378.10045837 -56.09503448 379.01341675 -56.33717346 379.95404053 C-58.56756341 388.60840228 -60.81725208 397.25755089 -63.08534336 405.90211105 C-64.25045287 410.3452542 -65.4089788 414.78988871 -66.55200195 419.23876953 C-67.65784235 423.54188615 -68.78157039 427.83998052 -69.91721916 432.13532257 C-70.34482017 433.76491031 -70.76623342 435.39613622 -71.18097115 437.0290451 C-76.27172172 457.03169513 -86.61008005 472.97460692 -104.25 484.3125 C-124.87336586 496.14246753 -148.66677411 496.65516497 -171.19970703 490.87646484 C-192.94887194 484.69807312 -211.66322184 471.38180204 -223.05078125 451.7265625 C-225.35625106 447.41485789 -226.85293103 443.46836209 -227.875 438.6875 C-229.28943416 432.94085606 -232.28954377 429.82378605 -236.34375 425.64453125 C-247.22850464 413.92105408 -250.19859711 398.3908184 -249.875 382.91796875 C-249.18173546 366.23629071 -240.47166659 352.48360568 -232.625 338.1875 C-232.14530762 337.31335449 -231.66561523 336.43920898 -231.17138672 335.53857422 C-227.24319199 328.39013243 -227.24319199 328.39013243 -225.64306641 325.48876953 C-219.52853636 314.31856228 -213.78718728 302.95179196 -208.00561523 291.60693359 C-203.51998966 282.80859038 -198.98462452 274.04046746 -194.37225342 265.30786133 C-189.76345004 256.57345189 -185.25191511 247.7898588 -180.75 239 C-180.31745911 238.15642944 -179.88491821 237.31285889 -179.43927002 236.44372559 C-173.74876491 225.34424479 -168.11378847 214.22038485 -162.56542969 203.04907227 C-159.78726739 197.46862826 -156.93260871 191.9381428 -154 186.4375 C-149.02864838 177.11075326 -144.3354699 167.64762481 -139.625 158.1875 C-134.20458009 147.30490422 -128.75570567 136.44943186 -123.03125 125.72265625 C-121.18775123 122.26687456 -119.38468944 118.79190414 -117.59375 115.30859375 C-110.75217631 102.01159781 -103.64411247 88.91237141 -96.19824219 75.94433594 C-94.65839302 73.24601551 -93.14226429 70.53573368 -91.6328125 67.8203125 C-58.76602928 8.95280805 -58.76602928 8.95280805 -32.99609375 -1.921875 C-22.59910657 -4.66870359 -9.79569658 -4.5800908 0 0 Z M-0.625 196.1875 C-1.15287109 197.58319214 -1.15287109 197.58319214 -1.69140625 199.00708008 C-3.33159371 203.33970716 -4.97714251 207.67028477 -6.625 212 C-6.91990326 212.77504883 -7.21480652 213.55009766 -7.51864624 214.34863281 C-11.31235288 224.30463657 -15.17120171 234.21496719 -19.43945312 243.97973633 C-21.0656522 247.45384108 -21.0656522 247.45384108 -21.625 251.1875 C-13.70083437 249.84975605 -5.91893125 248.14081776 1.875 246.1875 C3.47988281 245.79691406 3.47988281 245.79691406 5.1171875 245.3984375 C6.65246094 245.01558594 6.65246094 245.01558594 8.21875 244.625 C9.13849609 244.39683594 10.05824219 244.16867187 11.00585938 243.93359375 C13.60372727 243.23662642 13.60372727 243.23662642 16.375 241.1875 C13.68698511 231.68894989 10.40691368 222.39003745 7.1875 213.0625 C6.62286741 211.42193675 6.05841284 209.78131223 5.49414062 208.140625 C4.12314513 204.15554053 2.74974301 200.17129316 1.375 196.1875 C0.715 196.1875 0.055 196.1875 -0.625 196.1875 Z " fill="#EB1F89" transform="translate(1492.625,190.8125)"/>
<path d="M0 0 C1.55170898 0.61004883 1.55170898 0.61004883 3.13476562 1.23242188 C22.78054758 9.23531949 39.48538161 22.75353838 48.9375 42.0625 C50.00850315 44.74033988 50.94505077 47.45795068 51.875 50.1875 C54.09386643 56.68265764 57.03295479 60.99849215 61.62890625 66.16796875 C74.43376974 82.2227976 78.58655357 103.88528444 76.546875 123.89453125 C74.3644484 139.47174544 67.24246825 154.13560134 54.6015625 163.859375 C41.45672343 172.45244132 26.66561014 173.88926851 11.5 171.125 C1.51608183 168.49959929 -7.3948179 162.83384803 -16.2109375 157.61328125 C-29.55699593 149.76567703 -42.42837851 145.93253164 -58.0625 145.8125 C-58.70316406 145.791875 -59.34382812 145.77125 -60.00390625 145.75 C-67.82294598 145.69065245 -75.43579356 147.51142443 -83.0625 149.0625 C-81.73581299 149.44619751 -81.73581299 149.44619751 -80.38232422 149.83764648 C-43.07610971 160.6966529 -7.52479887 173.64048983 20.9375 201.0625 C21.65421875 201.71605469 22.3709375 202.36960937 23.109375 203.04296875 C34.7236602 213.93716827 41.64657803 227.68467665 48.26171875 241.91015625 C50.37613716 246.3427078 52.67052955 250.1159475 55.6875 254 C77.15802597 282.77618698 80.13349811 322.06938014 75.33984375 356.51367188 C73.13119945 370.50532627 69.27170003 383.40718038 62.9375 396.0625 C62.62409668 396.70413086 62.31069336 397.34576172 61.98779297 398.00683594 C55.49584863 411.2151538 47.04055105 422.35681081 36.9375 433.0625 C36.26460938 433.79984375 35.59171875 434.5371875 34.8984375 435.296875 C3.56164617 468.39416022 -48.64300686 483.06000693 -92.96586609 484.3530426 C-96.95679165 484.43050369 -100.945906 484.44815161 -104.9375 484.4375 C-106.20907959 484.43568726 -106.20907959 484.43568726 -107.50634766 484.43383789 C-145.21637598 484.28904381 -198.81988381 476.48087962 -228.0625 450.0625 C-228.73410156 449.49402344 -229.40570313 448.92554688 -230.09765625 448.33984375 C-238.65531239 440.57364714 -246.5300191 427.75968801 -247.25 416 C-247.188125 415.360625 -247.12625 414.72125 -247.0625 414.0625 C-247.64386719 413.81886719 -248.22523438 413.57523438 -248.82421875 413.32421875 C-258.73339007 407.73842061 -264.12768706 393.74515177 -267.1640625 383.2578125 C-271.888236 362.02110732 -268.40080491 340.92990193 -256.77734375 322.50390625 C-249.27298118 311.82001877 -239.64868986 303.03054729 -226.45703125 300.578125 C-225.60496094 300.49046875 -224.75289062 300.4028125 -223.875 300.3125 C-223.03582031 300.21453125 -222.19664062 300.1165625 -221.33203125 300.015625 C-212.19914623 300.14656242 -204.54966551 302.84191648 -196.375 306.6875 C-180.30591576 313.94642547 -163.52231665 320.18967911 -146.0625 323.0625 C-145.34964844 323.19140625 -144.63679688 323.3203125 -143.90234375 323.453125 C-128.3308993 325.88316561 -107.10746498 324.15306352 -93.875 314.8125 C-93.276875 314.235 -92.67875 313.6575 -92.0625 313.0625 C-98.49409752 310.36572971 -104.98887929 308.05324123 -111.62695312 305.91845703 C-149.18694529 293.8272998 -189.14723091 273.92425542 -208.39990234 237.53466797 C-210.44637271 233.43788193 -212.36765129 229.29588763 -214.22265625 225.109375 C-216.4127419 220.19200235 -219.19578458 215.83877148 -222.17089844 211.3581543 C-241.54070765 181.95133745 -245.42577096 148.26831779 -239.08984375 113.85546875 C-234.57581354 92.07270058 -226.78505535 71.76508475 -213.0625 54.0625 C-212.37929687 53.15886719 -211.69609375 52.25523437 -210.9921875 51.32421875 C-182.42917988 14.90901899 -140.91024701 -3.90989352 -95.69702148 -10.27026367 C-62.45582409 -14.24280461 -31.23281135 -12.3272866 0 0 Z " fill="#EB1F89" transform="translate(389.0625,200.9375)"/>
<path d="M0 0 C0.886875 0.598125 1.77375 1.19625 2.6875 1.8125 C8.95264072 7.73898447 13.94705915 16.36588499 15 25 C15.07007623 27.67290747 15.04533819 30.32504701 15 33 C15.58007812 33.268125 16.16015625 33.53625 16.7578125 33.8125 C25.27667431 38.32423169 31.02795314 46.10764106 34.05273438 55.14550781 C38.4022511 72.84400525 33.52610705 93.0578892 31.18596268 110.8676796 C30.33752293 117.36767289 29.52418972 123.87223193 28.70505714 130.37597084 C28.49794413 132.0193125 28.29041276 133.66260149 28.08246422 135.30583763 C26.08066474 151.12507754 24.25967863 166.95747679 22.5625 182.8125 C22.44348328 183.90477905 22.32446655 184.99705811 22.20184326 186.12243652 C19.49602792 211.01215004 17.66257122 235.96953168 17 261 C16.97663574 261.84369141 16.95327148 262.68738281 16.92919922 263.55664062 C16.66901208 274.42765268 17.16090639 285.21374391 17.875 296.0625 C17.95339111 297.27583008 18.03178223 298.48916016 18.11254883 299.73925781 C18.62960477 306.93937335 19.53199817 313.93107584 21 321 C27.09329205 323.6349371 33.77775427 324.11347719 40.20703125 322.41796875 C50.03635372 318.17216674 55.42068442 308.63120102 59.40625 299.18359375 C63.9524283 287.65228863 66.23797652 275.57444388 68.1875 263.375 C68.3424292 262.41875732 68.4973584 261.46251465 68.65698242 260.47729492 C72.14365969 237.02716013 72.36808057 213.47865397 72.31765366 189.82871628 C72.31243282 187.21638496 72.31050372 184.6040656 72.30899048 181.99172974 C72.27906724 152.24402078 71.29708794 122.66719221 69 93 C68.92785278 92.06176392 68.85570557 91.12352783 68.78137207 90.15686035 C67.89199416 78.59326117 67.89199416 78.59326117 66.91479492 67.03686523 C64.24635766 36.49716574 64.24635766 36.49716574 73.1875 24.1875 C83.46322285 12.09712823 97.48322106 5.99385969 113 4 C135.51308139 2.25025814 157.98350312 5.52128796 176 20 C176.66773438 20.52851563 177.33546875 21.05703125 178.0234375 21.6015625 C179.75222274 23.02398074 181.4089891 24.42482005 183 26 C184.06347656 27.00740234 184.06347656 27.00740234 185.1484375 28.03515625 C187.84375496 32.35107599 187.67232494 36.31658132 187.75 41.3125 C187.79447266 42.70952148 187.79447266 42.70952148 187.83984375 44.13476562 C187.91025904 46.42326265 187.96309214 48.71075809 188 51 C189.04607422 51.32677734 189.04607422 51.32677734 190.11328125 51.66015625 C193.72211844 53.33516458 196.33377141 55.73192543 199.1875 58.4375 C199.72052734 58.92798828 200.25355469 59.41847656 200.80273438 59.92382812 C210.41601181 68.88412822 208.24817727 82.28834088 208.68359375 94.65234375 C208.74392053 96.31127343 208.80436918 97.97019869 208.8649292 99.62911987 C209.0616147 105.06504746 209.25012849 110.50124452 209.4375 115.9375 C209.47002995 116.87565426 209.50255989 117.81380852 209.53607559 118.78039169 C211.56145406 177.26730782 213.12581137 235.78264058 213.30371475 294.30736923 C213.31230908 296.57463451 213.32609585 298.84181036 213.34140015 301.10903931 C213.61645581 345.24762619 209.70107998 393.59181682 179 428 C178.24203125 428.90105469 177.4840625 429.80210937 176.703125 430.73046875 C152.990433 458.20154494 118.89207201 469.82697227 84 475 C83.21818359 475.11859375 82.43636719 475.2371875 81.63085938 475.359375 C58.18428105 478.74632698 32.19417534 478.96429938 9 474 C8.1961084 473.82839355 7.3922168 473.65678711 6.56396484 473.47998047 C-25.06933946 466.44965921 -53.59344249 449.91174396 -71.625 422.3125 C-76.98179705 413.85408917 -81.21526958 404.81809749 -85.53125 395.80078125 C-86.89133836 393.20720849 -88.36168916 391.01728509 -90.125 388.6875 C-104.20582422 368.67790769 -111.73142402 345.10463456 -115 321 C-115.11569336 320.15743652 -115.23138672 319.31487305 -115.35058594 318.44677734 C-124.63590108 245.33525289 -115.27913539 167.06724142 -113.00469017 93.54777145 C-112.93766862 91.38045284 -112.87077583 89.21313029 -112.8039093 87.04580688 C-112.54718142 78.72960388 -112.28778817 70.41348989 -112.02497292 62.09747696 C-111.94466788 59.55233463 -111.86485457 57.00717672 -111.78558922 54.4620018 C-111.57361546 47.67258183 -111.34575253 40.88403382 -111.1016655 34.0956955 C-111.00131324 31.03998805 -110.92943768 27.98463199 -110.86209106 24.92803955 C-110.80648393 23.05178196 -110.75035157 21.17553984 -110.69360352 19.29931641 C-110.68291053 18.46899588 -110.67221754 17.63867535 -110.66120052 16.78319359 C-110.42712628 10.15775978 -108.46693907 5.00538011 -104.24609375 -0.13671875 C-77.4626802 -23.1021943 -27.39577088 -20.15060834 0 0 Z " fill="#EB1F89" transform="translate(595,207)"/>
<path d="M0 0 C7.43169825 6.83660882 10.54006399 14.04872582 11.97265625 23.9296875 C12.96326582 29.62712404 14.00412835 32.25532465 18.66015625 35.7421875 C19.54703125 36.34546875 20.43390625 36.94875 21.34765625 37.5703125 C29.31788382 43.24143596 31.50182101 54.0906432 33.37890625 63.1796875 C36.1547761 84.53253248 31.70232608 108.73375671 18.78515625 126.3046875 C15.94154351 129.80492591 12.94621261 133.08950346 9.78515625 136.3046875 C9.13546875 136.96726562 8.48578125 137.62984375 7.81640625 138.3125 C-0.20279106 145.904445 -10.00203689 148.90557163 -20.6640625 150.81640625 C-22.27084114 151.12078865 -22.27084114 151.12078865 -23.91007996 151.43132019 C-27.34190294 152.07432271 -30.77729494 152.69307911 -34.21484375 153.3046875 C-35.35648987 153.50918518 -36.49813599 153.71368286 -37.67437744 153.92437744 C-44.61866755 155.16125304 -51.56940336 156.35646669 -58.52514648 157.52709961 C-62.09906937 158.1292726 -65.67162704 158.73913647 -69.24414062 159.34960938 C-71.53247626 159.73742683 -73.8208849 160.12481384 -76.109375 160.51171875 C-77.1696138 160.69289749 -78.2298526 160.87407623 -79.32221985 161.06074524 C-80.30232529 161.22479355 -81.28243073 161.38884186 -82.29223633 161.55786133 C-83.14948807 161.70266434 -84.00673981 161.84746735 -84.88996887 161.99665833 C-87.21484375 162.3046875 -87.21484375 162.3046875 -91.21484375 162.3046875 C-91.18060852 162.86932669 -91.14637328 163.43396589 -91.11110061 164.01571536 C-89.08052058 197.50953291 -87.05890351 231.00387806 -85.0488621 264.49893425 C-84.80729803 268.52419576 -84.56565938 272.54945278 -84.32397461 276.57470703 C-84.27586246 277.37603468 -84.22775032 278.17736233 -84.17818023 279.00297263 C-83.39982824 291.96377548 -82.61543967 304.92420625 -81.82880443 317.8845087 C-81.02127944 331.1912141 -80.22027811 344.49830073 -79.42528254 357.80576062 C-78.93485357 366.01164 -78.43938926 374.21718304 -77.93740023 382.42236349 C-77.59326717 388.05534522 -77.25549364 393.68868627 -76.92262571 399.32234481 C-76.73063365 402.56859501 -76.53498665 405.81455044 -76.33364487 409.06023598 C-76.1151547 412.58951963 -75.90731611 416.11928126 -75.70201111 419.64935303 C-75.63684309 420.66106402 -75.57167508 421.67277502 -75.50453228 422.71514392 C-74.4769055 441.08903673 -78.30611839 456.13765406 -90.27734375 470.3671875 C-106.04053362 487.15669524 -129.34101794 495.79045617 -152.0625 496.5078125 C-171.72282663 496.80208948 -191.36807006 494.21257042 -206.40625 480.2734375 C-213.05677981 473.31671387 -216.23842448 466.69538188 -216.46484375 457.0546875 C-216.63108135 452.88202898 -216.63108135 452.88202898 -218.80078125 449.4921875 C-220.17742253 448.52168177 -221.58574993 447.5948457 -223.01953125 446.7109375 C-230.10807201 442.17023523 -233.96415444 435.21841705 -236.21484375 427.3046875 C-238.45096375 415.65991344 -236.42243041 403.48398454 -235.32470703 391.80688477 C-235.10884838 389.42910116 -234.89389652 387.05123509 -234.67977905 384.67329407 C-234.15839909 378.90932209 -233.62750148 373.14628572 -233.09217753 367.38359333 C-232.46870196 360.66695486 -231.85660433 353.94929378 -231.24502622 347.23156332 C-230.1536193 335.24710949 -229.05258577 323.2635602 -227.94580078 311.28051758 C-226.87248241 299.65966609 -225.80506382 288.03829417 -224.74462891 276.41625977 C-224.67921768 275.69938653 -224.61380646 274.9825133 -224.54641308 274.24391664 C-224.28347684 271.3621454 -224.02054779 268.48037351 -223.75763644 265.5986 C-222.74557999 254.50734276 -221.72918611 243.41648242 -220.71192215 232.32570173 C-220.4048955 228.97826411 -220.0980436 225.63081066 -219.79160929 222.28331876 C-219.09327033 214.65520302 -218.39232419 207.02733506 -217.68707657 199.39985466 C-217.47371412 197.08801021 -217.26125833 194.77608188 -217.04976654 192.46406555 C-216.76136515 189.31329468 -216.46964604 186.1628485 -216.17703247 183.01246643 C-216.09366233 182.09360659 -216.01029219 181.17474674 -215.92439568 180.22804266 C-215.54654566 176.19628927 -215.1332985 172.25791008 -214.21484375 168.3046875 C-214.91704544 168.40491211 -215.61924713 168.50513672 -216.34272766 168.60839844 C-223.00465282 169.55785775 -229.66758177 170.49989762 -236.3316927 171.43389893 C-239.75662209 171.91417513 -243.1811183 172.397175 -246.60473633 172.88671875 C-250.55303879 173.45115903 -254.50299593 174.00317427 -258.453125 174.5546875 C-259.66503006 174.72967773 -260.87693512 174.90466797 -262.12556458 175.08496094 C-274.50283624 176.7933932 -286.74929443 178.15927089 -297.46484375 170.5546875 C-308.05570797 161.83906684 -312.21079213 151.60606082 -314.34375 138.17578125 C-314.89651074 135.22326665 -314.89651074 135.22326665 -317.05859375 134.1484375 C-317.77015625 133.87 -318.48171875 133.5915625 -319.21484375 133.3046875 C-330.0569491 123.49721646 -335.43509112 108.74192555 -336.21484375 94.3046875 C-337.34575914 70.16929801 -332.29312578 47.00246491 -316.21484375 28.3046875 C-313.91796875 26.390625 -313.91796875 26.390625 -311.46484375 24.6796875 C-310.665625 24.10992187 -309.86640625 23.54015625 -309.04296875 22.953125 C-303.03684162 19.45231609 -297.16184296 17.86697152 -290.28594971 17.25759888 C-289.13463873 17.14267568 -289.13463873 17.14267568 -287.96006894 17.0254308 C-285.3793719 16.77238737 -282.79745651 16.53732174 -280.21484375 16.3046875 C-279.29946555 16.21969923 -278.38408735 16.13471095 -277.44097042 16.04714727 C-269.98882876 15.35541374 -262.53331122 14.70480026 -255.07714844 14.05810547 C-252.59476287 13.84123095 -250.11239228 13.62418505 -247.6300354 13.40698242 C-240.94047978 12.82230274 -234.25068341 12.24043427 -227.56080532 11.65945959 C-223.37314839 11.29577423 -219.18555037 10.93141362 -214.99796295 10.56692886 C-203.368567 9.55482382 -191.73910693 8.54346326 -180.10938644 7.53509331 C-178.99845762 7.4387675 -178.99845762 7.4387675 -177.8650858 7.34049571 C-176.36424527 7.21036397 -174.86340473 7.08023236 -173.36256418 6.95010088 C-172.61772269 6.88551779 -171.87288119 6.82093469 -171.10546875 6.75439453 C-169.98682158 6.65740075 -169.98682158 6.65740075 -168.84557548 6.5584475 C-156.74398071 5.50901519 -144.64287528 4.45404887 -132.5419701 3.39669751 C-120.07316899 2.30727767 -107.60397901 1.22240513 -95.13438725 0.14207184 C-88.15088361 -0.46306407 -81.16755614 -1.07008854 -74.18465424 -1.68213272 C-67.62192345 -2.25732334 -61.05867098 -2.82625966 -54.49503708 -3.3910675 C-52.09478378 -3.59859461 -49.69470547 -3.80815788 -47.29482651 -4.01996994 C-9.59416778 -7.34368398 -9.59416778 -7.34368398 0 0 Z " fill="#EB1F89" transform="translate(3749.21484375,189.6953125)"/>
<path d="M0 0 C5.01185489 4.60963132 7.59888499 10.26019804 10.6875 16.25 C10.99647217 16.84857819 11.30544434 17.44715637 11.6237793 18.06387329 C43.60619231 80.35373514 44.83796032 152.87143947 24.09423828 218.88232422 C11.85251985 256.44169073 -8.95595168 289.42140323 -36 318 C-36.87527344 318.92941406 -37.75054688 319.85882812 -38.65234375 320.81640625 C-45.05634299 327.42728946 -51.87075366 333.16085829 -59.22802734 338.67236328 C-60.37871917 339.53451018 -61.52515984 340.40237123 -62.66650391 341.27685547 C-99.31192377 369.31656873 -146.15375834 382.41041025 -191.9765625 376.75 C-236.52463279 370.52830011 -276.26693482 346.26747779 -303.375 310.53125 C-304.25254277 309.35606114 -305.127624 308.17902938 -306 307 C-306.59941406 306.19175781 -306.59941406 306.19175781 -307.2109375 305.3671875 C-313.58672747 296.68070854 -318.94875711 287.50302385 -324 278 C-324.586604 276.9164624 -324.586604 276.9164624 -325.18505859 275.81103516 C-325.56098145 275.09608887 -325.9369043 274.38114258 -326.32421875 273.64453125 C-326.66928467 272.99460205 -327.01435059 272.34467285 -327.36987305 271.67504883 C-327.57781494 271.12228271 -327.78575684 270.5695166 -328 270 C-327.67 269.34 -327.34 268.68 -327 268 C-325.90558594 269.41925781 -325.90558594 269.41925781 -324.7890625 270.8671875 C-296.05703988 307.51283007 -257.9591812 333.63087357 -211.0546875 339.59863281 C-204.34419607 340.32443012 -197.61633876 340.34930726 -190.875 340.3125 C-190.1583316 340.31034485 -189.44166321 340.3081897 -188.70327759 340.30596924 C-142.05331946 340.08207946 -98.16513461 320.92095833 -64.6640625 288.5234375 C-62 286 -62 286 -59.3515625 283.890625 C-57.20788227 282.16713458 -55.51633791 280.47141115 -53.75 278.375 C-51.8742309 276.16915994 -49.9962609 273.99604095 -48.0078125 271.890625 C-6.4680459 227.76413301 15.27196657 163.83818075 17 104 C17.04084717 102.86038818 17.04084717 102.86038818 17.08251953 101.69775391 C18.16142963 68.38725281 11.94259758 36.65836605 0.74682617 5.43823242 C0 3 0 3 0 0 Z " fill="#BD1E71" transform="translate(2890,307)"/>
<path d="M0 0 C8.81576126 4.69752631 13.84484267 10.94861418 17.22265625 20.4296875 C23.93779377 42.63350905 19.60973874 66.39786747 9.59375 86.875 C5.95205054 93.34913237 1.19031549 98.72080924 -4 104 C-4.6496875 104.66257812 -5.299375 105.32515625 -5.96875 106.0078125 C-13.98794731 113.5997575 -23.78719314 116.60088413 -34.44921875 118.51171875 C-36.05599739 118.81610115 -36.05599739 118.81610115 -37.69523621 119.12663269 C-41.12705919 119.76963521 -44.56245119 120.38839161 -48 121 C-49.71246918 121.30674652 -49.71246918 121.30674652 -51.45953369 121.61968994 C-58.4038238 122.85656554 -65.35455961 124.05177919 -72.31030273 125.22241211 C-75.88422562 125.8245851 -79.45678329 126.43444897 -83.02929688 127.04492188 C-85.31763251 127.43273933 -87.60604115 127.82012634 -89.89453125 128.20703125 C-91.48488945 128.47879936 -91.48488945 128.47879936 -93.1073761 128.75605774 C-94.08748154 128.92010605 -95.06758698 129.08415436 -96.07739258 129.25317383 C-96.93464432 129.39797684 -97.79189606 129.54277985 -98.67512512 129.69197083 C-101 130 -101 130 -105 130 C-104.96576477 130.56463919 -104.93152953 131.12927839 -104.89625686 131.71102786 C-102.86567683 165.20484541 -100.84405976 198.69919056 -98.83401835 232.19424675 C-98.59245428 236.21950826 -98.35081563 240.24476528 -98.10913086 244.27001953 C-98.06101871 245.07134718 -98.01290657 245.87267483 -97.96333648 246.69828513 C-97.18498449 259.65908798 -96.40059592 272.61951875 -95.61396068 285.5798212 C-94.80643569 298.8865266 -94.00543436 312.19361323 -93.21043879 325.50107312 C-92.72000982 333.7069525 -92.22454551 341.91249554 -91.72255648 350.11767599 C-91.37842342 355.75065772 -91.04064989 361.38399877 -90.70778196 367.01765731 C-90.5157899 370.26390751 -90.3201429 373.50986294 -90.11880112 376.75554848 C-89.90031095 380.28483213 -89.69247236 383.81459376 -89.48716736 387.34466553 C-89.38941534 388.86223202 -89.38941534 388.86223202 -89.28968853 390.41045642 C-88.26206175 408.78434923 -92.09127464 423.83296656 -104.0625 438.0625 C-119.82568987 454.85200774 -143.12617419 463.48576867 -165.84765625 464.203125 C-185.50798288 464.49740198 -205.15322631 461.90788292 -220.19140625 447.96875 C-228.11540183 439.67992958 -230.57048566 431.29622707 -231 420 C-230.34 419.67 -229.68 419.34 -229 419 C-227.26443101 419.68461891 -225.56083903 420.45071937 -223.875 421.25 C-201.45758431 430.81938434 -175.39794456 428.48735671 -153 420 C-144.56860577 416.33298364 -136.90078962 412.1370129 -130 406 C-129.32582031 405.43023438 -128.65164062 404.86046875 -127.95703125 404.2734375 C-118.83246291 395.97837537 -112.55333301 384.2171082 -111 372 C-110.85799874 368.95064024 -110.85523613 365.90801285 -110.87162781 362.85578918 C-110.87448498 361.97917659 -110.87734216 361.10256399 -110.88028592 360.19938737 C-110.95039399 350.75713631 -111.47230971 341.35453291 -112.05395508 331.93237305 C-112.16781819 330.01558884 -112.28115936 328.09877358 -112.39402771 326.18193054 C-112.69880539 321.03103337 -113.01084971 315.88060058 -113.32435441 310.73022819 C-113.65547765 305.26993247 -113.97987371 299.80923661 -114.30509949 294.34858704 C-114.85355371 285.15524987 -115.40630117 275.96217954 -115.9621582 266.76928711 C-116.73559552 253.97790221 -117.50131441 241.18606434 -118.26541293 228.39411867 C-118.86941019 218.28739301 -119.47554176 208.18079512 -120.08203125 198.07421875 C-120.14494173 197.0255915 -120.20785222 195.97696426 -120.27266908 194.89656043 C-120.69949652 187.78470491 -121.1280066 180.67295246 -121.55786133 173.5612793 C-121.64559938 172.1073331 -121.64559938 172.1073331 -121.73510993 170.62401426 C-122.41502975 159.37184521 -123.11661263 148.12135094 -123.84896851 136.87246704 C-123.91899926 135.79295416 -123.98903002 134.71344129 -124.06118292 133.6012159 C-124.3975592 128.41885321 -124.73685902 123.23671647 -125.08183765 118.05491924 C-125.2034456 116.19330227 -125.3249502 114.33167854 -125.44633484 112.470047 C-125.53085775 111.22680245 -125.53085775 111.22680245 -125.6170882 109.95844185 C-125.96088582 104.62769942 -126.04730034 99.3420157 -126 94 C-119.08431151 92.07774616 -112.07454525 90.98694444 -104.98875046 89.90421104 C-102.79075593 89.56729313 -100.59383726 89.2240367 -98.39712524 88.87886047 C-92.15606858 87.89839172 -85.91450064 86.92167613 -79.66943359 85.96704102 C-75.83274854 85.38008377 -71.99839968 84.77948066 -68.16514969 84.17051125 C-66.7205515 83.94355782 -65.27518439 83.72143413 -63.82902145 83.50467491 C-45.62870895 80.77192317 -30.45750595 75.39769964 -18.1953125 61.00390625 C-4.66858068 42.49490844 -1.28020217 22.4200277 0 0 Z " fill="#BD1E71" transform="translate(3763,222)"/>
<path d="M0 0 C4.64733225 1.45175444 7.72149909 4.1514398 11.1875 7.4375 C11.72052734 7.92798828 12.25355469 8.41847656 12.80273438 8.92382812 C22.41601181 17.88412822 20.24817727 31.28834088 20.68359375 43.65234375 C20.74392053 45.31127343 20.80436918 46.97019869 20.8649292 48.62911987 C21.0616147 54.06504746 21.25012849 59.50124452 21.4375 64.9375 C21.47002995 65.87565426 21.50255989 66.81380852 21.53607559 67.78039169 C23.56145406 126.26730782 25.12581137 184.78264058 25.30371475 243.30736923 C25.31230908 245.57463451 25.32609585 247.84181036 25.34140015 250.10903931 C25.61645581 294.24762619 21.70107998 342.59181682 -9 377 C-9.75796875 377.90105469 -10.5159375 378.80210937 -11.296875 379.73046875 C-35.009567 407.20154494 -69.10792799 418.82697227 -104 424 C-104.78181641 424.11859375 -105.56363281 424.2371875 -106.36914062 424.359375 C-129.81571895 427.74632698 -155.80582466 427.96429938 -179 423 C-179.8038916 422.82839355 -180.6077832 422.65678711 -181.43603516 422.47998047 C-213.06775507 415.45001134 -241.59582587 398.91219291 -259.625 371.3125 C-271.41618058 352.66701185 -271.41618058 352.66701185 -273 344 C-272.34 344 -271.68 344 -271 344 C-269.5546875 345.46875 -269.5546875 345.46875 -267.875 347.5 C-246.89317075 371.95734698 -218.52302876 383.55226378 -187.10644531 387.71801758 C-185.20664337 387.97233738 -183.31182815 388.26325908 -181.41796875 388.55859375 C-174.7759906 389.36402856 -168.05697616 389.28908953 -161.375 389.3125 C-160.63333588 389.31545074 -159.89167175 389.31840149 -159.12753296 389.32144165 C-143.48965842 389.33545877 -128.43223442 387.56451849 -113 385 C-111.53667432 384.78110334 -110.07316895 384.56339936 -108.609375 384.34765625 C-74.96890432 378.67916284 -44.4034686 360.28531648 -24 333 C-10.90839798 314.13553288 -3.77606001 293.48536867 0 271 C0.18626953 269.93910156 0.37253906 268.87820313 0.56445312 267.78515625 C5.42066736 239.04295265 4.46975268 210.03647715 4 181 C3.97889664 179.67446484 3.97889664 179.67446484 3.95736694 178.32215118 C3.24640065 133.75872086 2.41545612 89.19765884 0.61425781 44.66333008 C0.01688381 29.76692859 -0.2787536 14.90902907 0 0 Z " fill="#BD1E71" transform="translate(783,258)"/>
<path d="M0 0 C11.22919985 7.21542466 16.30116023 16.8788646 19.38256836 29.71069336 C20.39912929 35.12632226 20.48876904 40.44009754 20.4375 45.9375 C20.42847656 47.11481689 20.41945313 48.29213379 20.41015625 49.50512695 C19.65568643 88.17956437 1.34770087 127.06674173 -21 158 C-21.43103027 158.59796387 -21.86206055 159.19592773 -22.30615234 159.81201172 C-29.41098226 169.6155566 -36.9412967 178.96636991 -45 188 C-45.51626953 188.57943359 -46.03253906 189.15886719 -46.56445312 189.75585938 C-51.78814362 195.58800948 -57.01986746 201.32905621 -63.046875 206.3515625 C-64.42522383 207.51488891 -65.76629665 208.72308443 -67.078125 209.9609375 C-78.66417819 220.87704884 -92.16422886 230.18103771 -106 238 C-106.72429199 238.41459473 -107.44858398 238.82918945 -108.19482422 239.25634766 C-132.79434704 253.19356966 -159.80828195 262.25426076 -188 265 C-189.08667969 265.11085938 -190.17335938 265.22171875 -191.29296875 265.3359375 C-237.27035045 269.32459664 -285.361469 260.17840101 -321.5 229.875 C-323.70793738 227.95956862 -325.86196209 225.99300425 -328 224 C-328.63969727 223.40413086 -329.27939453 222.80826172 -329.93847656 222.19433594 C-344.25189978 208.70391741 -354.82132532 194.33539382 -364 177 C-364.56203125 175.96875 -365.1240625 174.9375 -365.703125 173.875 C-368.3093015 168.94904003 -368.3093015 168.94904003 -369 167 C-368.67 166.01 -368.34 165.02 -368 164 C-367.41605469 164.78310547 -367.41605469 164.78310547 -366.8203125 165.58203125 C-359.74592638 174.88957612 -352.10418159 183.63301207 -343 191 C-342.12601563 191.73476563 -341.25203125 192.46953125 -340.3515625 193.2265625 C-321.14121151 208.78250225 -298.40056143 219.71911717 -274.17018127 224.56169128 C-272.19696064 224.96022011 -270.22840708 225.38168418 -268.26049805 225.80566406 C-256.31069012 228.18854629 -244.66055065 228.51482271 -232.5 228.4375 C-231.48697815 228.43445862 -230.4739563 228.43141724 -229.43023682 228.42828369 C-213.98478488 228.35972391 -199.05630654 227.76264488 -184 224 C-183.13987305 223.78569336 -182.27974609 223.57138672 -181.39355469 223.35058594 C-175.50291202 221.82404067 -169.74518936 220.00103169 -164 218 C-162.7008667 217.55116455 -162.7008667 217.55116455 -161.37548828 217.09326172 C-119.96255525 202.57575727 -81.5964607 173.90785467 -55 139 C-54.00138131 137.7397896 -53.00125989 136.48076919 -52 135.22265625 C-26.93588418 103.4635367 -2.12276118 61.25682253 -0.68359375 19.7265625 C-0.64169922 18.57285156 -0.59980469 17.41914063 -0.55664062 16.23046875 C-0.49766602 14.44576172 -0.49766602 14.44576172 -0.4375 12.625 C-0.39431641 11.41199219 -0.35113281 10.19898438 -0.30664062 8.94921875 C-0.20094487 5.96624968 -0.09884679 2.98320258 0 0 Z " fill="#BD1E71" transform="translate(1231,419)"/>
<path d="M0 0 C20.07233777 18.96106647 27.27745384 50.86530451 28.25 77.3671875 C28.75315848 102.53442908 25.34479225 127.33384305 14 150 C13.68659668 150.64163086 13.37319336 151.28326172 13.05029297 151.94433594 C6.55834863 165.1526538 -1.89694895 176.29431081 -12 187 C-12.67289062 187.73734375 -13.34578125 188.4746875 -14.0390625 189.234375 C-45.37585383 222.33166022 -97.58050686 236.99750693 -141.90336609 238.2905426 C-145.89429165 238.36800369 -149.883406 238.38565161 -153.875 238.375 C-155.14657959 238.37318726 -155.14657959 238.37318726 -156.44384766 238.37133789 C-194.15387598 238.22654381 -247.75738381 230.41837962 -277 204 C-277.67160156 203.43152344 -278.34320313 202.86304688 -279.03515625 202.27734375 C-287.04930244 195.00439027 -293.85078658 183.70129181 -296 173 C-296 171.68 -296 170.36 -296 169 C-292.79505245 170.50562097 -289.95188985 172.33474693 -287.015625 174.30859375 C-281.17844177 178.04435233 -275.2287292 180.64660235 -268.75 183.0625 C-267.62537354 183.48805176 -266.50074707 183.91360352 -265.34204102 184.35205078 C-255.24189913 188.08192282 -245.02136755 190.9381988 -234.546875 193.39599609 C-232.2101861 193.95015333 -229.88624839 194.53877229 -227.5625 195.14453125 C-199.60107078 202.32589984 -169.53746067 203.45030927 -141 199 C-140.08041504 198.86045898 -139.16083008 198.72091797 -138.21337891 198.57714844 C-126.58624778 196.7795516 -115.19163562 194.70184871 -104 191 C-103.27844727 190.76974121 -102.55689453 190.53948242 -101.81347656 190.30224609 C-79.27953194 183.07744529 -59.17856295 173.26879297 -41 158 C-40.23945313 157.37480469 -39.47890625 156.74960937 -38.6953125 156.10546875 C-13.59857107 134.78626453 2.83892155 100.5767005 6 68 C6.1512597 64.93721037 6.18694429 61.87870626 6.203125 58.8125 C6.20882507 57.95172852 6.21452515 57.09095703 6.22039795 56.20410156 C6.22979427 54.38884691 6.23636041 52.57357562 6.24023438 50.75830078 C6.24987551 48.03516324 6.28092374 45.31280274 6.3125 42.58984375 C6.40207127 27.73133214 4.26530758 14.27819275 0 0 Z " fill="#BD1E71" transform="translate(438,447)"/>
<path d="M0 0 C4.04802884 2.92397162 6.79453873 6.12698167 9.4375 10.3125 C9.82365479 10.91989014 10.20980957 11.52728027 10.60766602 12.15307617 C21.88538124 30.50194465 25.60912854 51.89656872 21 73 C16.7678333 89.78495994 8.94751809 101.64460078 -3 114 C-3.73089844 114.78246094 -4.46179687 115.56492187 -5.21484375 116.37109375 C-46.43517414 159.43367354 -111.91149183 181.58675308 -170.30078125 183.125 C-211.57630677 183.86587629 -256.56401893 174.44685285 -290 149 C-291.55847656 147.87851562 -291.55847656 147.87851562 -293.1484375 146.734375 C-317.03657699 129.15957902 -340.74769755 102.39577103 -351 74 C-350.505 73.01 -350.505 73.01 -350 72 C-349.45472656 72.67804688 -348.90945312 73.35609375 -348.34765625 74.0546875 C-343.08297809 80.55229029 -337.68864482 86.86741375 -332 93 C-331.42378906 93.64195312 -330.84757812 94.28390625 -330.25390625 94.9453125 C-307.87292467 118.77183632 -275.3424688 133.39449325 -244 140.6875 C-243.1347168 140.89012451 -242.26943359 141.09274902 -241.37792969 141.30151367 C-226.31188385 144.65652221 -211.62097091 145.40528242 -196.25 145.375 C-195.25921448 145.37478851 -194.26842896 145.37457703 -193.24761963 145.37435913 C-177.19055228 145.34021719 -161.73847145 144.43934634 -146 141 C-144.73325439 140.72712158 -144.73325439 140.72712158 -143.44091797 140.44873047 C-137.88235236 139.20646266 -132.4396127 137.68399475 -127 136 C-126.0605957 135.71108887 -125.12119141 135.42217773 -124.15332031 135.12451172 C-81.53903447 121.84974146 -29.84906374 96.77043575 -7.01806641 56.04345703 C-2.48097494 46.93663315 1.11980991 35.98082889 1.1328125 25.76171875 C1.13474609 24.28348633 1.13474609 24.28348633 1.13671875 22.77539062 C1.13285156 21.75638672 1.12898438 20.73738281 1.125 19.6875 C1.12886719 18.68009766 1.13273437 17.67269531 1.13671875 16.63476562 C1.1293704 10.9949066 0.83967361 5.57783182 0 0 Z " fill="#BD1E71" transform="translate(2498,502)"/>
<path d="M0 0 C4.52802496 3.47757536 7.63084349 6.84500848 10.625 11.6875 C11.01179932 12.30544434 11.39859863 12.92338867 11.79711914 13.56005859 C20.27398045 27.40254497 23.00529404 42.23139319 19.24609375 58.203125 C14.36841968 74.12189392 3.99737593 86.20701754 -10 95 C-10.92941406 95.60328125 -11.85882812 96.2065625 -12.81640625 96.828125 C-21.69451626 101.78227244 -29.68674716 101.38418463 -39.61328125 101.078125 C-44.23897358 100.95154931 -48.48994401 101.2987168 -53.0625 102 C-70.86774314 104.67176157 -83.23501555 100.27842548 -99.125 92.875 C-117.28430139 84.49166733 -136.87340141 81.48505809 -156.36328125 87.6171875 C-193.05615217 101.56914916 -225.38238243 130.44207949 -242.16845703 166.11132812 C-251.7799472 187.94177086 -252.71174084 212.61123521 -250 236 C-262.52333883 226.54360129 -269.06691502 211.3132896 -271.28320312 196.04956055 C-273.30090483 179.47302892 -273.03178168 162.23322625 -269 146 C-268.76796875 145.02289063 -268.5359375 144.04578125 -268.296875 143.0390625 C-263.81270313 127.34446096 -254.59414165 112.29058917 -244 100 C-242.90945313 98.71996094 -242.90945313 98.71996094 -241.796875 97.4140625 C-239.58243674 94.88896564 -237.31188584 92.43614029 -235 90 C-234.55430664 89.5270752 -234.10861328 89.05415039 -233.64941406 88.56689453 C-213.84402211 67.68083775 -186.60081288 48.35592431 -157.05932617 47.40771484 C-139.75440375 47.24866007 -127.49144107 51.11717485 -112.16552734 58.68334961 C-91.35868236 68.79323861 -66.26402021 72.19852765 -44.078125 64.6015625 C-27.83162187 58.43776573 -14.01785148 48.8860364 -6 33 C-2.0394481 24.07583214 0.15494717 16.42440019 0.0625 6.625 C0.04896484 4.75714844 0.04896484 4.75714844 0.03515625 2.8515625 C0.02355469 1.91054688 0.01195312 0.96953125 0 0 Z " fill="#BD1E71" transform="translate(1220,276)"/>
<path d="M0 0 C3.83802237 2.14138835 7.51262959 4.21281623 10.953125 6.9609375 C11.64446533 7.50733887 12.33580566 8.05374023 13.0480957 8.61669922 C13.77472412 9.19693848 14.50135254 9.77717773 15.25 10.375 C21.52509045 15.32223128 27.86044537 20.16086799 34.3125 24.875 C41.10180563 29.84029218 47.82148555 34.88665692 54.5 40 C61.11938274 45.0666281 67.77503207 50.07435459 74.5 55 C81.22500596 59.92567326 87.87930764 64.93504586 94.5 70 C97.13202157 72.00554649 99.76485335 74.01002439 102.39794922 76.01416016 C104.1291681 77.33539626 105.8573795 78.66058262 107.58251953 79.98974609 C123.16020001 91.97694298 134.34687179 98.67555115 154.3046875 96.78125 C170.55839482 93.71188038 186.00698073 80.51641648 195.13427734 67.36572266 C202.31611936 56.29384951 206.9842298 44.05737714 209 31 C218.88187191 36.99500229 224.53862199 42.81848045 228 54 C228.75 57.5625 228.75 57.5625 229 61 C229.103125 62.299375 229.20625 63.59875 229.3125 64.9375 C228.99015832 82.22673548 220.51974142 99.47282873 209 112 C207.95199219 113.16789063 207.95199219 113.16789063 206.8828125 114.359375 C197.66026305 124.13987228 183.76886953 133.74472706 169.875 134.2734375 C168.25013378 134.31319768 166.6251088 134.34684851 165 134.375 C163.81857422 134.43107422 163.81857422 134.43107422 162.61328125 134.48828125 C150.87651491 134.65837931 141.7786162 128.68910067 132.9375 121.5625 C131.10397749 120.12488156 129.26931887 118.68871107 127.43359375 117.25390625 C126.52335449 116.53734863 125.61311523 115.82079102 124.67529297 115.08251953 C120.6778112 111.97077291 116.59367026 108.9833618 112.5 106 C104.87114927 100.41540359 97.3435064 94.70719991 89.8359375 88.9609375 C84.10097273 84.57935674 78.32240437 80.26457042 72.5 76 C65.77502522 71.07434958 59.11960738 66.06634231 52.5 61 C45.47971679 55.62939511 38.42530185 50.31009464 31.3125 45.0625 C30.50425781 44.46501953 29.69601562 43.86753906 28.86328125 43.25195312 C28.12078125 42.70603516 27.37828125 42.16011719 26.61328125 41.59765625 C25.96141846 41.11820557 25.30955566 40.63875488 24.63793945 40.14477539 C22.99242892 38.93545368 22.99242892 38.93545368 21 38 C20.12998258 41.76977636 19.85573866 45.29161314 19.81054688 49.15698242 C19.79382935 50.37983444 19.77711182 51.60268646 19.7598877 52.8625946 C19.74631226 54.18024307 19.73273682 55.49789154 19.71875 56.85546875 C19.70066833 58.24010385 19.6820635 59.62473221 19.66296387 61.00935364 C19.60345584 65.4020111 19.55144422 69.79474187 19.5 74.1875 C19.10978656 107.12717992 19.10978656 107.12717992 18.62890625 117.6640625 C18.57033447 118.96682129 18.5117627 120.26958008 18.45141602 121.61181641 C17.35148319 129.86755883 12.75349723 136.34133395 6.3203125 141.44140625 C-11.60749846 153.48382472 -33.18286312 155.11701651 -54.02050781 151.40234375 C-69.63439505 148.22872681 -85.98618786 141.72617932 -95.77734375 128.62109375 C-101.07600695 120.3427422 -103.18514379 112.73033492 -103 103 C-101.97003906 103.53109375 -100.94007812 104.0621875 -99.87890625 104.609375 C-86.85039291 111.1413859 -73.68898975 115.39126709 -59 116 C-58.31550781 116.03996094 -57.63101562 116.07992187 -56.92578125 116.12109375 C-41.08783469 116.61877414 -25.00291188 113.07287116 -12.3515625 103.2578125 C-6.80764599 97.93491592 -3.02767003 91.26445443 -2.70117188 83.53271484 C-2.66181519 82.63042145 -2.6224585 81.72812805 -2.58190918 80.79849243 C-2.54456665 79.8208493 -2.50722412 78.84320618 -2.46875 77.8359375 C-2.42721802 76.81486908 -2.38568604 75.79380066 -2.34289551 74.74179077 C-1.86176603 62.34087959 -1.65699597 49.93471404 -1.44775391 37.52685547 C-1.23210666 24.99359577 -0.8710991 12.5061922 0 0 Z " fill="#BD1E71" transform="translate(1867,534)"/>
<path d="M0 0 C3.7958432 0.00569153 7.59161612 0.00231987 11.38745689 -0.0034523 C28.32374519 -0.02513346 45.20830949 0.18022187 62.1237793 1.13037109 C63.88570573 7.27397546 65.6436004 13.41868288 67.39282227 19.56591797 C67.98858728 21.65607019 68.58874305 23.74497049 69.19018555 25.83349609 C69.45702148 26.77708984 69.72385742 27.72068359 69.9987793 28.69287109 C70.22307617 29.47791016 70.44737305 30.26294922 70.6784668 31.07177734 C71.1237793 33.13037109 71.1237793 33.13037109 71.1237793 37.13037109 C70.32009415 37.12815048 69.516409 37.12592987 68.68836975 37.12364197 C60.94324232 37.10322175 53.19812874 37.08819163 45.452981 37.07855892 C41.47547783 37.07343957 37.49799771 37.06655407 33.52050781 37.05493164 C11.70029559 36.99284384 -10.07011333 37.319234 -31.8762207 38.13037109 C-31.97763367 38.68338898 -32.07904663 39.23640686 -32.18353271 39.80618286 C-33.6566463 47.51766056 -35.59138533 55.09279148 -37.5793457 62.68505859 C-37.75757622 63.36699406 -37.93580673 64.04892952 -38.11943817 64.75152969 C-39.06284148 68.35844086 -40.01025998 71.96427124 -40.96069336 75.56933594 C-41.93088923 79.25309752 -42.88584245 82.94063336 -43.83748245 86.62922478 C-44.58194147 89.50239411 -45.33832421 92.3723326 -46.09774017 95.24158096 C-46.45457065 96.59811166 -46.80702723 97.95580207 -47.1546402 99.31472397 C-52.06854708 118.48057657 -61.34625614 134.81484059 -78.73461914 145.24511719 C-99.45347781 156.93464609 -122.94779391 159.14848451 -145.8762207 153.13037109 C-159.2716838 149.12928888 -171.09579301 143.03947926 -181.8762207 134.13037109 C-182.68446289 133.52451172 -183.49270508 132.91865234 -184.32543945 132.29443359 C-195.14880225 123.11197878 -203.07795359 109.14445272 -204.8762207 95.13037109 C-204.44954102 95.47068359 -204.02286133 95.81099609 -203.58325195 96.16162109 C-181.48504986 113.29342313 -156.20434089 121.49438182 -128.1574707 118.69677734 C-109.46465892 115.47004198 -92.46251078 106.39358884 -80.8762207 91.13037109 C-80.22911133 90.33501953 -79.58200195 89.53966797 -78.9152832 88.72021484 C-71.36345113 78.20262496 -69.39782986 65.68716898 -66.59301758 53.26953125 C-65.20139207 47.17500784 -63.54038095 41.15531045 -61.8762207 35.13037109 C-61.61309082 34.17469238 -61.34996094 33.21901367 -61.07885742 32.234375 C-60.16090525 28.90698639 -59.2381509 25.58096548 -58.3137207 22.25537109 C-58.02045898 21.19616455 -57.72719727 20.13695801 -57.42504883 19.0456543 C-56.99675781 17.5136438 -56.99675781 17.5136438 -56.55981445 15.95068359 C-56.30772217 15.04592285 -56.05562988 14.14116211 -55.79589844 13.20898438 C-54.58352343 9.15056948 -53.23397571 5.14211397 -51.8762207 1.13037109 C-34.58207127 0.10113886 -17.31730468 -0.0262937 0 0 Z " fill="#BD1E71" transform="translate(3144.876220703125,528.86962890625)"/>
<path d="M0 0 C3.7958432 0.00569153 7.59161612 0.00231987 11.38745689 -0.0034523 C28.32374519 -0.02513346 45.20830949 0.18022187 62.1237793 1.13037109 C63.88570573 7.27397546 65.6436004 13.41868288 67.39282227 19.56591797 C67.98858728 21.65607019 68.58874305 23.74497049 69.19018555 25.83349609 C69.45702148 26.77708984 69.72385742 27.72068359 69.9987793 28.69287109 C70.22307617 29.47791016 70.44737305 30.26294922 70.6784668 31.07177734 C71.1237793 33.13037109 71.1237793 33.13037109 71.1237793 37.13037109 C70.29646301 37.12815048 69.46914673 37.12592987 68.61676025 37.12364197 C60.67876682 37.10329737 52.74078258 37.08822758 44.80276871 37.07855892 C40.72535304 37.07342056 36.64795955 37.06649593 32.57055664 37.05493164 C16.38866402 37.010327 0.2198248 37.01415961 -15.9543457 37.57177734 C-17.11270935 37.61076645 -18.271073 37.64975555 -19.46453857 37.68992615 C-25.74252809 37.90177806 -25.74252809 37.90177806 -31.8762207 39.13037109 C-32.11123795 40.04332947 -32.34625519 40.95628784 -32.58839417 41.89691162 C-34.81878411 50.55127338 -37.06847278 59.20042198 -39.33656406 67.84498215 C-40.50167358 72.28812529 -41.6601995 76.73275981 -42.80322266 81.18164062 C-43.90906306 85.48475725 -45.03279109 89.78285161 -46.16843987 94.07819366 C-46.59604087 95.7077814 -47.01745412 97.33900731 -47.43219185 98.9719162 C-52.52294242 118.97456623 -62.86130075 134.91747801 -80.5012207 146.25537109 C-101.12458656 158.08533863 -124.91799482 158.59803606 -147.45092773 152.81933594 C-167.78555292 147.04277944 -186.99759204 134.60077003 -197.8762207 116.13037109 C-201.62870815 109.3578336 -205.02143157 103.01136096 -204.8762207 95.13037109 C-204.44954102 95.47068359 -204.02286133 95.81099609 -203.58325195 96.16162109 C-181.48504986 113.29342313 -156.20434089 121.49438182 -128.1574707 118.69677734 C-109.46465892 115.47004198 -92.46251078 106.39358884 -80.8762207 91.13037109 C-80.22911133 90.33501953 -79.58200195 89.53966797 -78.9152832 88.72021484 C-71.36345113 78.20262496 -69.39782986 65.68716898 -66.59301758 53.26953125 C-65.20139207 47.17500784 -63.54038095 41.15531045 -61.8762207 35.13037109 C-61.61309082 34.17469238 -61.34996094 33.21901367 -61.07885742 32.234375 C-60.16090525 28.90698639 -59.2381509 25.58096548 -58.3137207 22.25537109 C-58.02045898 21.19616455 -57.72719727 20.13695801 -57.42504883 19.0456543 C-56.99675781 17.5136438 -56.99675781 17.5136438 -56.55981445 15.95068359 C-56.30772217 15.04592285 -56.05562988 14.14116211 -55.79589844 13.20898438 C-54.58352343 9.15056948 -53.23397571 5.14211397 -51.8762207 1.13037109 C-34.58207127 0.10113886 -17.31730468 -0.0262937 0 0 Z " fill="#BD1E71" transform="translate(1468.876220703125,528.86962890625)"/>
<path d="M0 0 C4.3761092 3.43700255 7.83790364 6.94370872 11.1875 11.375 C11.61224609 11.91382813 12.03699219 12.45265625 12.47460938 13.0078125 C22.60015571 26.23558687 22.31642823 43.77740616 20.53515625 59.6640625 C17.38579104 83.00494257 6.68638544 105.3391709 -12.11328125 119.99609375 C-26.8053999 130.19508816 -42.49880962 132.57963344 -60 132 C-61.1240625 131.99097656 -62.248125 131.98195313 -63.40625 131.97265625 C-69.38700977 131.56681898 -73.05686116 130.53346819 -77.25830078 126.07470703 C-79.1075431 123.94401519 -80.89413329 121.76686563 -82.67041016 119.57519531 C-95.62697046 104.22526379 -116.84629255 90.06181518 -137.00341797 87.77246094 C-148.64587208 86.89284573 -158.97088614 88.76495083 -168.18359375 96.33984375 C-186.48665869 113.06845149 -200.96826927 141.66956701 -202.16796875 166.47265625 C-202.21553336 175.21503196 -201.48857049 183.37426565 -200 192 C-212.54700412 183.12528977 -219.85550151 164.73433328 -222.5546875 149.96484375 C-224.18548787 135.44499832 -224.13562903 120.79100382 -219 107 C-218.57589844 105.84757812 -218.15179687 104.69515625 -217.71484375 103.5078125 C-211.11390767 86.9962788 -198.83140639 62.8753784 -182.3203125 54.66796875 C-179.90012761 53.67534219 -177.49079805 52.79579649 -175 52 C-174.01 51.67 -173.02 51.34 -172 51 C-150.47286553 49.27520931 -133.18794255 55.97218872 -116.5625 69.7734375 C-113.68072546 72.27741843 -110.82453941 74.80678878 -108 77.375 C-107.49283447 77.83608154 -106.98566895 78.29716309 -106.46313477 78.7722168 C-103.98861987 81.05458261 -101.67150917 83.36109293 -99.40234375 85.85546875 C-94.59594301 91.13413073 -91.21700901 94.18396949 -83.98046875 94.8984375 C-82.99691406 94.93195313 -82.01335938 94.96546875 -81 95 C-79.32357422 95.08121094 -79.32357422 95.08121094 -77.61328125 95.1640625 C-57.61204152 95.64814091 -40.04354367 90.21504974 -25.375 76.39453125 C-7.30211475 58.1730203 0.17488808 32.87361768 0.125 7.625 C0.10036541 5.08249337 0.05539696 2.54210475 0 0 Z " fill="#BD1E71" transform="translate(2478,298)"/>
<path d="M0 0 C15.06581843 14.83754845 22.63143883 33.94314685 23.25 55 C23.00613604 72.61917135 17.91804745 89.15630328 5.3359375 101.953125 C-5.2840586 111.25894098 -18.13196914 114.92861866 -32.09765625 114.3046875 C-46.70279612 113.16434625 -57.79128535 106.86821125 -70.1484375 99.55078125 C-89.96773843 87.89685133 -110.960945 85.31900533 -133.31640625 90.34375 C-141.15436464 91.7401201 -148.191982 90.67080686 -155.9375 89.25 C-156.87529297 89.09273438 -157.81308594 88.93546875 -158.77929688 88.7734375 C-166.0232026 87.46460116 -172.41126328 85.30704503 -178.625 81.3125 C-180.51177077 78.13929462 -180.26555301 75.9603552 -179.6640625 72.375 C-178.0945491 66.7616815 -175.26434857 62.54834653 -170.4375 59.25 C-159.71545999 53.24161154 -147.3029926 50.61873252 -135.125 50.8125 C-134.24440918 50.8225708 -133.36381836 50.8326416 -132.45654297 50.84301758 C-129.97044342 50.88043533 -127.48556554 50.93711477 -125 51 C-123.39125 51.02707031 -123.39125 51.02707031 -121.75 51.0546875 C-106.97943899 51.80200755 -94.31827537 59.83394715 -81.734375 66.84375 C-66.5576024 75.27145782 -53.00200326 79.73816953 -35.484375 76.3125 C-29.68623726 74.52845762 -24.82785462 71.94233311 -19.9375 68.3671875 C-18 67 -18 67 -15.8125 65.93359375 C-13.41495639 64.69865211 -13.10963742 63.42733185 -12 61 C-11.38253906 60.24589844 -10.76507813 59.49179687 -10.12890625 58.71484375 C0.88815728 44.66556091 3.35753953 26.39166462 1.34838867 9.10620117 C0.94704259 6.06166042 0.49360688 3.03099103 0 0 Z " fill="#BD1E71" transform="translate(443,259)"/>
<path d="M0 0 C6.54135074 5.38395535 11.12339467 11.50760071 15 19 C15.39058594 19.7528125 15.78117187 20.505625 16.18359375 21.28125 C18.78543442 26.69460348 20.06132426 32.08387262 21 38 C20.24976562 37.52949219 19.49953125 37.05898438 18.7265625 36.57421875 C3.7954469 27.49143684 -10.05464945 25.24284936 -27.125 29.02734375 C-42.0159675 32.76509668 -54.38562478 40.12087948 -66 50 C-66.68707031 50.55300781 -67.37414063 51.10601562 -68.08203125 51.67578125 C-73.86885074 56.45818236 -78.43709248 62.06242342 -83 68 C-83.59683594 68.76957031 -84.19367187 69.53914063 -84.80859375 70.33203125 C-103.96047835 96.29544063 -109.77776157 125.41490313 -109 157 C-116.36441969 153.67132867 -121.92802639 144.30072983 -125.23046875 137.0625 C-132.12852232 118.57431581 -131.67332037 97.95742566 -127 79 C-126.74476563 77.86949219 -126.48953125 76.73898437 -126.2265625 75.57421875 C-118.72227443 45.72918315 -98.10389145 18.10909744 -72 2 C-48.9836503 -11.57270672 -23.16726832 -15.83272979 0 0 Z " fill="#BD1E71" transform="translate(2768,340)"/>
<path d="M0 0 C16.70466773 15.58906602 23.05464822 40.856221 24.14233398 62.88232422 C25.78722199 114.45563199 3.93884848 161.48048995 -30.94140625 198.78125 C-51.81799628 220.85607003 -51.81799628 220.85607003 -58 224 C-63.67072635 223.74238194 -67.28328776 221.2054448 -71.8046875 218.08984375 C-72.5286673 217.60294571 -73.25264709 217.11604767 -73.99856567 216.61439514 C-76.29742454 215.06510071 -78.58620159 213.50160845 -80.875 211.9375 C-82.43685547 210.88120782 -83.99934905 209.82585849 -85.5625 208.77148438 C-89.38247628 206.19185051 -93.19347942 203.5994437 -97 201 C-94.66616945 198.58265899 -92.42078812 196.45421283 -89.6015625 194.625 C-88.96484619 194.20395996 -88.32812988 193.78291992 -87.67211914 193.34912109 C-86.99656982 192.90391113 -86.32102051 192.45870117 -85.625 192 C-65.0259784 178.06777492 -47.33340412 160.28284233 -33 140 C-32.55076172 139.36884277 -32.10152344 138.73768555 -31.63867188 138.08740234 C-16.73476767 116.96983614 -5.94026872 94.19533333 0 69 C0.15839355 68.33049316 0.31678711 67.66098633 0.47998047 66.97119141 C5.55218715 44.79871418 4.40482309 22.21155472 0 0 Z " fill="#BD1E71" transform="translate(2058,266)"/>
<path d="M0 0 C2.88059299 2.52240407 4.37151503 5.31777861 6.109375 8.70703125 C6.69614014 9.84446777 7.28290527 10.9819043 7.88745117 12.15380859 C8.50877528 13.37313072 9.12961635 14.5926991 9.75 15.8125 C10.38427182 17.05302482 11.01879375 18.29342179 11.65356445 19.53369141 C12.59075922 21.36608519 13.52704928 23.19891084 14.46040344 25.03326416 C16.06583615 28.18695975 17.69389385 31.32530956 19.37109375 34.44140625 C27.17513484 49.19356135 29.83502643 65.76464196 25.09765625 82.00390625 C17.15083322 103.69505665 1.84639187 118.40281685 -18.81982422 128.04980469 C-41.22851568 137.81628029 -65.72657771 138.96683976 -88.75 130.75 C-105.6157643 123.85036915 -119.02066688 111.454277 -127 95 C-130.46396966 85.39190898 -130.46396966 85.39190898 -129 81 C-128.51273438 81.42410156 -128.02546875 81.84820313 -127.5234375 82.28515625 C-109.89124915 96.87178479 -89.56987577 100.37554635 -67.30859375 98.7265625 C-45.08341188 96.04639267 -22.52778265 85.29497934 -8 68 C1.48384145 55.18292557 7.48411374 40.12287198 6 24 C4.70971838 15.75457016 2.88511332 7.83102186 0 0 Z " fill="#BD1E71" transform="translate(3374,549)"/>
<path d="M0 0 C2.86696416 3.54257147 4.98141259 7.43965094 7.125 11.44140625 C7.51316895 12.16432358 7.90133789 12.88724091 8.30126953 13.63206482 C9.12012279 15.16162187 9.93697469 16.69225181 10.75195312 18.22387695 C11.98576735 20.53583048 13.23480364 22.83911276 14.484375 25.14257812 C23.53895569 42.02075938 27.83669418 58.9219921 22.64111328 77.96630859 C18.82274305 90.07865591 12.04551197 99.28950699 3 108 C2.36707031 108.65226563 1.73414063 109.30453125 1.08203125 109.9765625 C-15.29574164 125.81202503 -40.32549114 132.40024126 -62.48144531 132.30297852 C-83.30696115 131.79566633 -102.46490554 124.13590917 -117 109 C-125.92914716 98.3607179 -130.27443322 89.54524096 -133 76 C-132.34257813 76.52787109 -132.34257813 76.52787109 -131.671875 77.06640625 C-111.97865088 92.39670064 -90.50209266 97.28232005 -65.875 94.3125 C-44.01768507 90.71129479 -21.49735645 79.53826834 -8.1328125 61.4765625 C1.50057299 47.04715677 6.2874438 31.42090022 2.97143555 14.20019531 C2.34687271 11.12622753 1.67563058 8.06309201 1 5 C0.66242472 3.33418734 0.32722165 1.66787736 0 0 Z " fill="#BD1E71" transform="translate(1700,553)"/>
<path d="M0 0 C6.46496289 1.40855315 11.00216775 6.28835454 14.84765625 11.5078125 C26.89324087 30.86361678 19.99220698 56.5106114 17.18596268 77.8676796 C16.33752293 84.36767289 15.52418972 90.87223193 14.70505714 97.37597084 C14.49794413 99.0193125 14.29041276 100.66260149 14.08246422 102.30583763 C12.08066474 118.12507754 10.25967863 133.95747679 8.5625 149.8125 C8.44348328 150.90477905 8.32446655 151.99705811 8.20184326 153.12243652 C5.49602792 178.01215004 3.66257122 202.96953168 3 228 C2.97663574 228.84369141 2.95327148 229.68738281 2.92919922 230.55664062 C2.46183398 250.08386709 4.34669991 269.56092926 6 289 C-4.02672731 283.11543814 -9.52268684 273.90019588 -12.61376953 262.79492188 C-13.21147454 260.37176616 -13.74594997 257.94431722 -14.25 255.5 C-14.40106201 254.77329102 -14.55212402 254.04658203 -14.70776367 253.29785156 C-18.0222815 235.46339015 -18.37372544 217.33146609 -18.3125 199.25 C-18.31067719 198.12205017 -18.30885437 196.99410034 -18.30697632 195.83197021 C-18.24843176 174.10488192 -17.10580549 152.61797099 -15 131 C-14.91985657 130.1614447 -14.83971313 129.3228894 -14.75714111 128.45892334 C-12.79334201 107.94155358 -10.34550669 87.48764287 -7.7109375 67.046875 C-7.61032391 66.26602224 -7.50971031 65.48516949 -7.40604782 64.68065453 C-6.3934327 56.82997938 -5.37356279 48.98032137 -4.33380318 41.13319206 C-3.94265944 38.17690976 -3.5549842 35.22017741 -3.16768265 32.26338959 C-2.90126098 30.24089735 -2.62961749 28.21909508 -2.35775757 26.19732666 C-1.2147527 17.46830105 -0.4868564 8.78639203 0 0 Z " fill="#BD1E71" transform="translate(609,240)"/>
<path d="M0 0 C6.05259976 6.49547291 8.7091093 13.08001342 8.6875 21.875 C8.69136719 23.45667969 8.69136719 23.45667969 8.6953125 25.0703125 C8.5625 27.75 8.5625 27.75 7.5625 29.75 C6.5209375 29.70359375 5.479375 29.6571875 4.40625 29.609375 C-13.02916573 29.06766031 -26.23217582 33.46480466 -41.4375 41.75 C-42.4275 42.245 -42.4275 42.245 -43.4375 42.75 C-43.90301779 45.64351628 -44.2426156 48.46511458 -44.5078125 51.37890625 C-44.59376678 52.24313705 -44.67972107 53.10736786 -44.76828003 53.99778748 C-45.04181076 56.76858023 -45.30228133 59.54042841 -45.5625 62.3125 C-45.74523737 64.18693264 -45.92882001 66.06128309 -46.11328125 67.93554688 C-46.56451494 72.53946673 -47.00403678 77.14437444 -47.4375 81.75 C-50.83835653 82.96929466 -53.82578458 84.00427142 -57.453125 83.98046875 C-58.49339844 83.97756836 -58.49339844 83.97756836 -59.5546875 83.97460938 C-60.25851562 83.96236328 -60.96234375 83.95011719 -61.6875 83.9375 C-62.40679688 83.93685547 -63.12609375 83.93621094 -63.8671875 83.93554688 C-69.15553571 83.89098214 -69.15553571 83.89098214 -71.4375 82.75 C-70.73421448 68.1654322 -69.77983735 53.597841 -68.51269531 39.05126953 C-68.29456386 36.41764339 -68.09951616 33.78201072 -67.92675781 31.14501953 C-66.38415398 7.92854517 -66.38415398 7.92854517 -61.50488281 3.28369141 C-58.38706728 1.05970355 -55.10216163 -0.14797765 -51.4375 -1.25 C-49.51921446 -2.03773588 -47.60224081 -2.82868671 -45.6875 -3.625 C-43.94490354 -4.19003128 -42.19518963 -4.73383148 -40.4375 -5.25 C-39.73753906 -5.47429687 -39.03757812 -5.69859375 -38.31640625 -5.9296875 C-25.08162544 -9.58238693 -11.22506115 -8.15593051 0 0 Z " fill="#BD1E71" transform="translate(1925.4375,319.25)"/>
<path d="M0 0 C-0.45815953 9.87454363 -1.08607816 19.71876483 -2 29.5625 C-2.0829834 30.48442139 -2.1659668 31.40634277 -2.25146484 32.35620117 C-2.37448975 33.63587769 -2.37448975 33.63587769 -2.5 34.94140625 C-2.5721875 35.70138916 -2.644375 36.46137207 -2.71875 37.24438477 C-3 39 -3 39 -4 40 C-5.74623431 40.32931381 -7.50347844 40.60047441 -9.26318359 40.84790039 C-10.38880707 41.00799088 -11.51443054 41.16808136 -12.67416382 41.33302307 C-13.90317413 41.50285202 -15.13218445 41.67268097 -16.3984375 41.84765625 C-17.65830475 42.02380966 -18.918172 42.19996307 -20.21621704 42.38145447 C-22.89435329 42.75432038 -25.57268153 43.12527287 -28.25146484 43.4934082 C-31.65599819 43.96176577 -35.05894802 44.44067839 -38.46158409 44.92260075 C-41.73125135 45.38365283 -45.00243106 45.83371942 -48.2734375 46.28515625 C-49.48220551 46.45700943 -50.69097351 46.62886261 -51.93637085 46.80592346 C-64.30577967 48.48353012 -76.54519923 49.84695539 -87.25 42.25 C-98.35510862 33.11118828 -102.28598398 21.87899247 -105 8 C-103.329375 8.495 -103.329375 8.495 -101.625 9 C-83.39684619 12.83195686 -63.77543454 8.41362409 -45.59155273 5.88623047 C-41.66905912 5.34392763 -37.74457381 4.81643837 -33.8203125 4.28710938 C-20.2995794 2.5445589 -20.2995794 2.5445589 -6.83514404 0.44126892 C-4 0 -4 0 0 0 Z " fill="#BD1E71" transform="translate(3539,318)"/>
<path d="M0 0 C3.72827381 3.10689484 7.23676814 6.21596096 10.5625 9.75 C31.38594704 30.69266525 62.72543335 43.79015246 90.625 52 C121.23166945 61.13515389 121.23166945 61.13515389 128.1875 70.75 C130.96477214 76.03186666 130.89829324 81.45815808 129.453125 87.15625 C128.53741523 89.63884093 127.80897097 91.59164268 125.36767578 92.82397461 C121.78518484 93.09031571 118.71149242 91.89536863 115.3671875 90.75390625 C114.62223526 90.50796722 113.87728302 90.2620282 113.10975647 90.00863647 C110.69376476 89.20577061 108.28410341 88.38578747 105.875 87.5625 C104.64549118 87.1464299 104.64549118 87.1464299 103.3911438 86.72195435 C64.81770589 73.64795384 25.54638386 53.56511473 6.2578125 15.765625 C0 2.9925208 0 2.9925208 0 0 Z " fill="#BD1E71" transform="translate(173,420)"/>
<path d="M0 0 C1.94262695 0.20947266 1.94262695 0.20947266 4 1 C5.07885742 2.55224609 5.07885742 2.55224609 5.91796875 4.6484375 C6.24716309 5.46280273 6.57635742 6.27716797 6.91552734 7.11621094 C7.27340332 8.06786133 7.6312793 9.01951172 8 10 C8.41846191 11.10375977 8.83692383 12.20751953 9.26806641 13.34472656 C10.41787753 16.44900792 11.53606982 19.56012561 12.62915039 22.68457031 C13.08683272 23.98419844 13.55142674 25.28141201 14.02270508 26.57617188 C14.71375594 28.47506777 15.38252821 30.38202428 16.05078125 32.2890625 C16.44950439 33.41006348 16.84822754 34.53106445 17.2590332 35.68603516 C18.69017857 42.08681512 16.6584448 47.5442982 14.33984375 53.48828125 C14.07476517 54.1851857 13.80968658 54.88209015 13.53657532 55.60011292 C11.21776774 61.6695467 8.82655071 67.71175607 6.42922974 73.75054932 C4.81650317 77.83307451 3.32135956 81.92360778 1.95703125 86.09765625 C-1.63689174 96.54597891 -1.63689174 96.54597891 -5.78076172 99.09570312 C-10.70994536 101.17989443 -15.70018521 101.71368678 -21 102 C-22.28261719 102.09925781 -23.56523437 102.19851563 -24.88671875 102.30078125 C-32.89240114 102.6145538 -32.89240114 102.6145538 -35.8515625 100.97265625 C-37.67957637 97.83270046 -37.3205073 94.51668554 -37 91 C-36.2388287 88.36651634 -35.44888714 85.99930796 -34.41796875 83.484375 C-34.1480864 82.79704285 -33.87820404 82.10971069 -33.60014343 81.40155029 C-32.75149663 79.25984586 -31.88058241 77.12875614 -31 75 C-30.72851135 74.34314209 -30.45702271 73.68628418 -30.17730713 73.00952148 C-28.54607455 69.0890408 -26.87574716 65.18607483 -25.19186401 61.28796387 C-17.93219928 44.46337908 -11.11329915 27.48856165 -4.61767578 10.35351562 C-3.94260986 8.57750977 -3.94260986 8.57750977 -3.25390625 6.765625 C-2.84599854 5.68571289 -2.43809082 4.60580078 -2.01782227 3.49316406 C-1 1 -1 1 0 0 Z " fill="#BD1E71" transform="translate(3151,345)"/>
<path d="M0 0 C1.94262695 0.2097168 1.94262695 0.2097168 4 1 C5.07885742 2.55004883 5.07885742 2.55004883 5.91796875 4.64453125 C6.24716309 5.45873535 6.57635742 6.27293945 6.91552734 7.11181641 C7.27340332 8.06491699 7.6312793 9.01801758 8 10 C8.41846191 11.10907715 8.83692383 12.2181543 9.26806641 13.36083984 C10.41676763 16.47838579 11.53517027 19.60258033 12.62915039 22.73950195 C13.31647833 24.69884087 14.02243649 26.65086856 14.72851562 28.60351562 C15.17043536 29.86417572 15.61123113 31.1252305 16.05078125 32.38671875 C16.44950439 33.51295654 16.84822754 34.63919434 17.2590332 35.79956055 C18.60626966 41.61864548 16.703235 46.19651908 14.59375 51.62890625 C14.35319382 52.25234421 14.11263763 52.87578217 13.86479187 53.51811218 C13.08354563 55.53572581 12.292975 57.54946927 11.5 59.5625 C11.23055573 60.2486438 10.96111145 60.9347876 10.6835022 61.64172363 C9.3156532 65.12178714 7.94017749 68.59870408 6.55712891 72.07275391 C5.16418318 75.57466143 3.80643895 79.08955469 2.44921875 82.60546875 C1.69768093 84.48792645 0.9439506 86.36951108 0.1875 88.25 C-0.29783203 89.5330603 -0.29783203 89.5330603 -0.79296875 90.84204102 C-2.53681214 95.05821838 -3.37373768 96.64344705 -7.46484375 98.97265625 C-8.63144531 99.31167969 -9.79804687 99.65070313 -11 100 C-12.22976563 100.36158203 -12.22976563 100.36158203 -13.484375 100.73046875 C-20.69718343 102.18546631 -28.05558499 103.23746353 -35.1875 101 C-37.52254521 98.42339839 -37.3040771 96.55200594 -37.22183228 93.17687988 C-36.87092923 89.73340543 -35.71926744 86.65890267 -34.41796875 83.484375 C-34.1480864 82.79704285 -33.87820404 82.10971069 -33.60014343 81.40155029 C-32.75149663 79.25984586 -31.88058241 77.12875614 -31 75 C-30.72851135 74.34314209 -30.45702271 73.68628418 -30.17730713 73.00952148 C-28.54607455 69.0890408 -26.87574716 65.18607483 -25.19186401 61.28796387 C-17.93219928 44.46337908 -11.11329915 27.48856165 -4.61767578 10.35351562 C-3.94260986 8.57750977 -3.94260986 8.57750977 -3.25390625 6.765625 C-2.84599854 5.68571289 -2.43809082 4.60580078 -2.01782227 3.49316406 C-1 1 -1 1 0 0 Z " fill="#BD1E71" transform="translate(1475,345)"/>
<path d="M0 0 C-3.06915014 15.6867674 -18.35321953 28.43143119 -30.92578125 36.9921875 C-56.6287177 53.44462752 -56.6287177 53.44462752 -68 52 C-76.36114624 49.93151971 -83.46779274 46.35630236 -88.30859375 39.015625 C-89.35236363 37.04278523 -90.20757027 35.08534139 -91 33 C-91.61875 31.39125 -91.61875 31.39125 -92.25 29.75 C-93.30404824 24.4797588 -93.13102975 19.35241285 -93 14 C-91.73712158 14.04858154 -90.47424316 14.09716309 -89.1730957 14.1472168 C-75.63170342 14.50370892 -63.36578686 12.76726314 -50.1875 9.8125 C-48.25565732 9.39642873 -46.32335941 8.9824658 -44.390625 8.57055664 C-40.62428273 7.76481135 -36.86055142 6.94848861 -33.09912109 6.12011719 C-27.59385888 4.90774995 -22.08136853 3.73367702 -16.5637207 2.57885742 C-14.59091237 2.16587093 -12.61927977 1.7472065 -10.64916992 1.3215332 C-9.80588135 1.14195068 -8.96259277 0.96236816 -8.09375 0.77734375 C-7.38927734 0.62515381 -6.68480469 0.47296387 -5.95898438 0.31616211 C-4 0 -4 0 0 0 Z " fill="#BD1E71" transform="translate(1102,465)"/>
<path d="M0 0 C2.6894554 2.39678957 4.15207074 4.89714418 5.78515625 8.09375 C6.31689453 9.12628906 6.84863281 10.15882813 7.39648438 11.22265625 C8.22116211 12.84494141 8.22116211 12.84494141 9.0625 14.5 C10.13602662 16.59410496 11.21026774 18.68784376 12.28515625 20.78125 C12.86499268 21.91280518 13.4448291 23.04436035 14.04223633 24.21020508 C16.27385042 28.54545668 18.55192576 32.85601 20.828125 37.16796875 C25.84730241 46.68254867 30.78249655 56.23864654 35.6875 65.8125 C36.11520691 66.64640259 36.54291382 67.48030518 36.98358154 68.33947754 C43.08204492 80.23268077 49.10689244 92.16015124 55.0586853 104.12734985 C58.99009512 112.02992018 63.00101785 119.877384 67.15478516 127.66503906 C71.06912754 135.04361464 74.77994381 142.52237386 78.5 150 C82.88770267 158.81631348 87.30899652 167.60645091 91.93701172 176.29980469 C97.20137186 186.21145711 102.29074491 196.21446237 107.40551758 206.20385742 C108.14789054 207.65156004 108.89032149 209.09923293 109.6328125 210.546875 C109.99273788 211.25064774 110.35266327 211.95442047 110.72349548 212.67951965 C112.5618591 216.26019233 114.43422934 219.81668912 116.37011719 223.34570312 C116.7476413 224.03722473 117.12516541 224.72874634 117.51412964 225.44122314 C118.23405819 226.75432343 118.96076107 228.06373873 119.69509888 229.36883545 C120.52344931 230.88118367 121.27037811 232.43762569 122 234 C121.67 234.66 121.34 235.32 121 236 C112.59021009 220.81387386 104.53837206 205.46282873 96.59579468 190.0297699 C94.07182409 185.12947389 91.51395728 180.24785318 88.9375 175.375 C82.89341113 163.93050456 76.94561159 152.43614154 71.00238037 140.93902588 C70.31861496 139.61633554 69.63473135 138.29370629 68.95074463 136.97113037 C53.2628245 106.63617371 53.2628245 106.63617371 46.55674744 93.09399414 C43.89785229 87.74480756 41.14384257 82.4539497 38.33984375 77.1796875 C32.62390593 66.37132982 27.18193589 55.43248166 21.75 44.47949219 C16.34589155 33.59105806 10.82785476 22.77639958 5.12890625 12.0390625 C0 2.32519057 0 2.32519057 0 0 Z " fill="#BE1E71" transform="translate(3251,311)"/>
</svg>
