<?xml version="1.0" encoding="UTF-8" standalone="no"?>
<!DOCTYPE svg PUBLIC "-//W3C//DTD SVG 1.1//EN" "http://www.w3.org/Graphics/SVG/1.1/DTD/svg11.dtd">
<svg width="100%" height="100%" viewBox="0 0 3894 823" version="1.1" xmlns="http://www.w3.org/2000/svg" xmlns:xlink="http://www.w3.org/1999/xlink" xml:space="preserve" xmlns:serif="http://www.serif.com/" style="fill-rule:evenodd;clip-rule:evenodd;stroke-linejoin:round;stroke-miterlimit:2;">
    <g transform="matrix(1,0,0,1,0,-1180)">
        <g id="Artboard4" transform="matrix(19.47,0,0,4.115,-43223.4,-2112)">
            <rect x="2220" y="800" width="200" height="200" style="fill:none;"/>
            <g transform="matrix(1,0,0,1,0,6.318344)">
                <g transform="matrix(0.0407,0,0,0.192573,1926.281944,774.79358)">
                    <text x="8066.498px" y="827.084px" style="font-family:'BrandonText-Black', 'Brandon Text', sans-serif;font-weight:500;font-size:599.194px;fill:white;">S<tspan x="8445.787px 8921.547px 9394.311px 9843.706px 10288.307px 10732.31px 11246.418px 11668.25px " y="827.084px 827.084px 827.084px 827.084px 827.084px 827.084px 827.084px 827.084px ">UGARCOAT</tspan></text>
                </g>
                <g id="logo" transform="matrix(0.086899,0,0,0.411158,2216.948369,775.379979)">
                    <g transform="matrix(0.312101,0,0,0.312101,215.967111,238.121563)">
                        <path d="M0,317.716C-0.846,316.579 -1.354,316.097 -1.622,315.507C-15.673,284.538 -26.318,252.483 -32.26,218.945C-37.101,191.614 -38.886,164.06 -38.161,136.324C-36.888,87.567 -27.438,40.35 -11.099,-5.501C12.817,-72.619 48.786,-132.621 97.225,-184.85C146.484,-237.962 205.937,-275.113 275.615,-295.498C292.127,-300.329 308.945,-303.805 326.029,-306.052C340.766,-307.99 355.542,-309.173 370.392,-308.906C395.58,-308.451 420.362,-305.27 444.344,-297.107C464.326,-290.305 482.647,-280.582 498.305,-266.284C513.411,-252.489 525.266,-236.42 531.913,-216.835C535.284,-206.901 537.333,-196.71 538.228,-186.262C538.493,-183.17 538.976,-180.08 539.613,-177.042C540.265,-173.929 540.315,-170.9 539.6,-167.799C538.694,-163.865 538.431,-159.882 538.548,-155.821C538.63,-152.951 538.167,-150.027 537.634,-147.187C536.487,-141.084 535.207,-135.004 533.829,-128.949C533.388,-127.014 532.355,-125.221 531.78,-123.307C520.717,-86.486 503.256,-52.806 481.66,-21.156C465.932,1.893 448.284,23.408 429.489,44.004C405.876,69.88 380.69,94.172 354.944,117.893C342.82,129.064 330.68,140.234 318.197,150.999C299.874,166.799 280.395,181.149 260.985,195.576C239.08,211.856 217.089,228.028 195.435,244.635C172.876,261.937 151.485,280.608 131.988,301.364C122.069,311.923 112.494,322.757 104.452,334.867C91.646,354.15 82.157,374.907 77.987,397.719C68.541,449.399 81.426,494.317 120.001,530.844C136.887,546.834 157.049,557.513 179.024,564.825C186.83,567.423 194.745,569.664 202.902,570.944C216.934,573.145 230.932,573.507 244.976,570.851C252.534,569.421 260.077,568.013 267.203,565.037C298.589,551.93 317.66,528.586 323.342,495.141C327.32,471.731 321.442,450.027 308.163,430.423C302.333,421.816 294.544,415.147 285.853,409.501C275.033,402.471 263.339,397.25 251.118,393.323C236.676,388.682 222.055,384.605 207.557,380.138C197.254,376.964 187.023,373.555 176.768,370.226C175.925,369.953 175.142,369.491 173.699,368.824C174.916,368.221 175.584,367.812 176.305,367.545C184.553,364.485 192.957,361.873 201.703,360.851C209.692,359.917 217.701,359.404 225.816,360.042C263.028,362.971 294.923,377.895 322.469,402.586C337.379,415.95 349.142,431.743 357.261,450.129C364.238,465.927 367.694,482.457 367.662,499.75C367.651,505.987 366.763,512.032 365.53,518.133C363.658,527.389 360.049,535.904 355.739,544.189C350.896,553.498 344.903,562.027 337.934,569.864C320.417,589.561 298.93,603.473 274.593,613.206C265.408,616.879 255.944,619.668 246.322,621.943C245.084,622.236 243.838,622.547 242.649,622.991C240.742,623.703 238.821,624.019 236.768,624.113C233.864,624.248 230.986,624.877 228.087,625.2C223.001,625.767 217.91,626.286 212.816,626.77C211.736,626.873 210.634,626.727 209.542,626.717C206.264,626.687 202.985,626.655 199.706,626.653C198.979,626.652 198.241,626.889 197.527,626.818C191.346,626.207 185.153,625.681 178.998,624.867C173.933,624.196 168.894,623.269 163.878,622.283C129.106,615.445 97.804,601.063 70.345,578.631C45.715,558.51 27.285,533.844 16.623,503.661C13.264,494.153 10.686,484.408 9.361,474.445C8.646,469.068 7.794,463.637 8.091,458.1C8.404,452.257 7.959,446.378 8.132,440.523C8.239,436.893 8.483,433.179 9.372,429.682C10.768,424.193 10.883,418.486 12.723,413.074C15.255,405.63 17.173,397.972 19.824,390.574C28.983,365.011 42.511,341.834 58.859,320.243C74.066,300.159 91.424,282.065 110.045,265.155C133.551,243.807 158.738,224.584 184.92,206.679C230.192,175.72 273.566,142.349 314.459,105.78C332.905,89.284 351.103,72.491 367.965,54.389C396.806,23.426 421.981,-10.247 440.785,-48.362C448.503,-64.007 454.611,-80.25 458.372,-97.335C461.588,-111.943 462.898,-126.687 460.987,-141.546C457.394,-169.489 443.888,-191.42 420.351,-207.039C407.059,-215.859 392.365,-221.235 376.857,-224.618C362.442,-227.763 347.846,-228.433 333.162,-228.053C308.24,-227.408 284.184,-222.205 260.716,-214.08C224.508,-201.543 191.928,-182.532 162.339,-158.325C121.365,-124.805 89.228,-84.051 64.062,-37.645C43.436,0.39 28.544,40.625 17.994,82.529C12.447,104.564 8.189,126.852 5.072,149.348C2.911,164.947 1.388,180.619 0.196,196.333C-1.927,224.325 -2.194,252.34 -1.511,280.375C-1.252,290.994 -0.508,301.601 -0.01,312.215C0.063,313.779 0,315.349 0,317.716" style="fill:white;fill-rule:nonzero;"/>
                    </g>
                    <g transform="matrix(0.312101,0,0,0.312101,188.389373,284.807795)">
                        <path d="M0,96.678C-6.733,96.866 -11.707,93.827 -14.827,88.05C-16.549,84.861 -17.701,81.343 -18.901,77.9C-20.165,74.275 -21.147,70.553 -22.311,66.893C-23.639,62.719 -26.501,60.105 -30.701,58.96C-33.168,58.287 -35.622,57.465 -38.139,57.09C-48.18,55.595 -52.708,48.523 -55.106,39.826C-57.306,31.844 -55.144,24.154 -51.302,17.097C-45.798,6.988 -36.925,1.781 -25.556,0.806C-13.974,-0.188 -3.8,3.147 4.529,11.348C9.821,16.559 13.593,22.906 16.148,29.815C18.299,35.631 19.975,41.652 21.429,47.687C22.706,52.984 23.435,58.418 24.293,63.809C24.52,65.232 24.531,66.757 24.289,68.175C23.586,72.294 22.854,76.419 21.863,80.476C19.603,89.721 12.698,95.585 3.29,96.465C2.196,96.567 1.097,96.609 0,96.678" style="fill:white;fill-rule:nonzero;"/>
                    </g>
                    <g transform="matrix(0.312101,0,0,0.312101,180.881995,197.246906)">
                        <path d="M0,249.678C-10.356,172.255 -51.268,100.178 -51.268,100.178C-86.526,38.059 -106.396,20.634 -117.788,11.861C-125.745,5.734 -146.581,-9.276 -174.604,-12.405C-182.371,-13.272 -200.841,-15.092 -214.64,-4.762C-218.725,-1.705 -221.268,1.57 -221.973,2.504C-224.183,5.432 -232.237,15.994 -229.565,29.645C-227.69,39.224 -220.78,49.09 -210.057,52.596C-198.528,56.365 -188.272,50.926 -186.366,49.864C-174.766,43.403 -175.6,33.722 -166.135,28.247C-155.353,22.01 -141.075,26.237 -134.82,29.699C-69.436,65.888 -13.498,226.829 -12.446,242.563C-12.399,243.266 -9.154,257.634 -5.989,262.25C-4.261,264.77 -2.981,263.707 -1.135,262.954C1.625,261.827 0.444,252.998 0,249.678" style="fill:white;fill-rule:nonzero;"/>
                    </g>
                    <g transform="matrix(0.312101,0,0,0.312101,174.836125,233.349535)">
                        <path d="M0,150.866C-11.52,114.605 -37.067,74.056 -37.067,74.056C-43.882,63.24 -47.289,57.832 -50.01,54.085C-58.949,41.772 -72.847,22.984 -96.671,7.626C-103.403,3.285 -116.306,-4.248 -132.597,-8.016C-139.05,-9.508 -145.238,-10.226 -152.134,-9.547C-156.075,-9.16 -161.996,-8.519 -168.618,-5.013C-171.959,-3.243 -177.323,-0.403 -181.162,5.856C-182.599,8.198 -185.878,13.725 -184.957,21.073C-184.191,27.19 -180.938,31.198 -179.888,32.401C-176.014,36.845 -171.442,38.331 -169.693,38.874C-167.455,39.568 -163.043,40.874 -157.868,39.332C-153.237,37.953 -150.441,35.022 -148.806,33.307C-147.512,31.951 -145.483,29.784 -144.144,26.419C-141.969,20.954 -143.964,18.236 -141.701,14.898C-139.817,12.12 -136.588,11.278 -134.807,10.813C-126.736,8.707 -110.454,15.204 -88.831,35.245C-74.438,48.585 -64.976,61.163 -55.472,73.797C-52.702,77.479 -46.187,86.279 -38.551,98.131C-34.789,103.969 -28.901,113.427 -22.404,125.396C-15.517,138.083 -12.073,144.426 -11.345,147.22C-11.042,148.382 -9.72,151.082 -7.076,156.48C-6.328,158.009 -5.085,160.464 -2.94,160.889C-2.701,160.937 -1.859,161.092 -0.992,160.695C0.45,160.034 0.851,158.354 0.967,157.866C1.12,157.224 1.142,156.588 0.848,154.797C0.627,153.449 0.272,151.722 0,150.866" style="fill:white;fill-rule:nonzero;"/>
                    </g>
                </g>
            </g>
        </g>
    </g>
</svg>
